<?xml version="1.0" standalone="no"?>
<!DOCTYPE svg PUBLIC "-//W3C//DTD SVG 1.1//EN" "http://www.w3.org/Graphics/SVG/1.1/DTD/svg11.dtd" >
<svg xmlns="http://www.w3.org/2000/svg" xmlns:xlink="http://www.w3.org/1999/xlink" version="1.1">
<metadata>
Created by FontForge 20170731 at Wed Dec 16 17:21:21 2020
 By Aleksey,,,
Copyright (c) 2018 by Nizar Kazan. All rights reserved.
</metadata>
<defs>
<font id="Lausanne-Regular" horiz-adv-x="1150" >
  <font-face 
    font-family="Lausanne"
    font-weight="400"
    font-stretch="normal"
    units-per-em="2048"
    panose-1="2 0 5 3 0 0 0 0 0 0"
    ascent="1638"
    descent="-410"
    x-height="1059"
    cap-height="1462"
    bbox="-236 -438 2826 1992"
    underline-thickness="102"
    underline-position="-409"
    unicode-range="U+0020-FB02"
  />
<missing-glyph horiz-adv-x="1280" 
d="M49 1462h1182v-1784h-1182v1784zM1016 438v256h-252v256h-256v-256h-258v-256h258v-256h256v256h252zM719 905v-256h252v-168h-252v-254h-168v254h-256v168h256v256h168z" />
    <glyph glyph-name=".notdef" horiz-adv-x="1280" 
d="M49 1462h1182v-1784h-1182v1784zM1016 438v256h-252v256h-256v-256h-258v-256h258v-256h256v256h252zM719 905v-256h252v-168h-252v-254h-168v254h-256v168h256v256h168z" />
    <glyph glyph-name=".null" horiz-adv-x="0" 
 />
    <glyph glyph-name="nonmarkingreturn" horiz-adv-x="682" 
 />
    <glyph glyph-name="space" unicode=" " horiz-adv-x="561" 
 />
    <glyph glyph-name="exclam" unicode="!" horiz-adv-x="489" 
d="M342 1462v-450l-51 -637h-92l-52 637v450h195zM131 0v227h227v-227h-227z" />
    <glyph glyph-name="quotedbl" unicode="&#x22;" horiz-adv-x="727" 
d="M297 987h-139v512h139v-512zM422 1501h139v-512h-139v512z" />
    <glyph glyph-name="numbersign" unicode="#" horiz-adv-x="1138" 
d="M209 0l59 422h-198v139h219l43 307h-209v140h227l60 419h141l-59 -419h253l60 419h141l-59 -419h182v-140h-201l-43 -307h187v-139h-207l-60 -422h-141l60 422h-254l-60 -422h-141zM727 868h-254l-43 -307h254z" />
    <glyph glyph-name="dollar" unicode="$" horiz-adv-x="1138" 
d="M51 446h174q4 -131 81.5 -213.5t207.5 -103.5v543q-235 59 -326 139q-94 82 -94 256q0 183 119 299q119 119 301 131v135h113v-137q318 -41 403 -405h-174q-40 202 -229 237v-504l123 -32q95 -23 200 -107q57 -44 91 -116t34 -158q0 -194 -125 -310q-123 -117 -323 -135
v-168h-113v168q-205 20 -325.5 144t-137.5 337zM514 854v479q-107 -12 -171 -76.5t-64 -171.5q0 -95 55.5 -146t179.5 -85zM627 643v-514q264 18 264 262q0 102 -62 157t-202 95z" />
    <glyph glyph-name="percent" unicode="%" horiz-adv-x="2048" 
d="M385 -45l1102 1524h174l-1100 -1524h-176zM520 1452q328 0 328 -410q0 -175 -82 -294q-80 -117 -246 -117q-168 0 -250 107.5t-82 297.5q0 194 81 305t251 111zM514 743q180 0 180 299q0 297 -174 297q-178 0 -178 -299q0 -297 172 -297zM1532 797q328 0 328 -410
q0 -176 -82 -295q-80 -117 -246 -117q-168 0 -250 108t-82 298q0 194 81 305t251 111zM1526 88q180 0 180 299q0 297 -174 297q-178 0 -178 -299q0 -297 172 -297z" />
    <glyph glyph-name="ampersand" unicode="&#x26;" horiz-adv-x="1290" 
d="M1094 0l-156 197q-65 -102 -178.5 -162t-235.5 -60q-135 0 -234 43t-145 113q-77 124 -77 244q0 76 24 139t73.5 116t113 96t155.5 89l-51 57l-47 58l-35 49q-28 46 -38 82t-15 100q0 125 88 213t242 88q146 0 249 -80q105 -76 105 -219q0 -207 -293 -377l287 -325
q19 45 35 130t22 99h147q-7 -18 -34 -143q-27 -127 -68 -207l293 -340h-227zM758 1153q0 67 -47 111.5t-121 44.5q-71 0 -119.5 -42t-48.5 -114q0 -104 139 -281q197 129 197 281zM842 303l-330 420q-130 -72 -195 -152.5t-65 -193.5q0 -106 84 -178q82 -70 194 -70
q196 0 312 174z" />
    <glyph glyph-name="quotesingle" unicode="'" horiz-adv-x="458" 
d="M297 987h-139v512h139v-512z" />
    <glyph glyph-name="parenleft" unicode="(" horiz-adv-x="530" 
d="M551 -406h-133q-163 254 -242.5 483t-79.5 476q0 245 83.5 491.5t238.5 452.5h133q-270 -427 -270 -944q0 -523 270 -959z" />
    <glyph glyph-name="parenright" unicode=")" horiz-adv-x="530" 
d="M113 -406h-133q270 427 270 945q0 521 -270 958h133q163 -254 242 -482.5t79 -475.5q0 -246 -83.5 -492.5t-237.5 -452.5z" />
    <glyph glyph-name="asterisk" unicode="*" horiz-adv-x="720" 
d="M412 1462l-4 -237l223 88l41 -99l-230 -75l142 -189l-84 -63l-140 209l-135 -209l-92 63l139 189l-223 75l37 99l221 -88l-4 237h109z" />
    <glyph glyph-name="plus" unicode="+" horiz-adv-x="1228" 
d="M696 1036v-440h434v-156h-434v-440h-164v440h-434v156h434v440h164z" />
    <glyph glyph-name="comma" unicode="," horiz-adv-x="450" 
d="M102 0v227h226v-207q0 -253 -226 -321v102q60 22 92.5 80.5t26.5 118.5h-119z" />
    <glyph glyph-name="hyphen" unicode="-" horiz-adv-x="878" 
d="M123 487v164h633v-164h-633z" />
    <glyph glyph-name="period" unicode="." horiz-adv-x="450" 
d="M102 0v227h226v-227h-226z" />
    <glyph glyph-name="slash" unicode="/" horiz-adv-x="681" 
d="M-37 -35l606 1532h150l-606 -1532h-150z" />
    <glyph glyph-name="zero" unicode="0" horiz-adv-x="1179" 
d="M1102 731q0 -302 -101 -512q-55 -115 -160.5 -179.5t-250.5 -64.5t-251 64.5t-163 179.5q-98 210 -98 512q0 244 61 414q53 152 164 238.5t287 86.5q115 0 208 -42t150 -113q58 -70 92 -170q62 -173 62 -414zM918 733q0 216 -68 385q-36 93 -103 145t-157 52t-157 -52
t-103 -145q-68 -169 -68 -385q0 -215 68 -393q36 -94 103 -147.5t157 -53.5t157 53.5t103 147.5q68 178 68 393z" />
    <glyph glyph-name="one" unicode="1" horiz-adv-x="854" 
d="M467 1462h143v-1462h-184v1075h-356v139q104 0 184 17q80 19 137.5 76.5t75.5 154.5z" />
    <glyph glyph-name="two" unicode="2" horiz-adv-x="1169" 
d="M242 164h805v-164h-1006q4 109 30.5 187.5t80.5 146.5q44 53 73 81t82 64l86 60l92 55q206 128 287 221q84 96 84 240q0 116 -82 186q-80 74 -199 74q-142 0 -217 -86t-75 -232h-185q0 230 126.5 351.5t361.5 121.5q197 0 325 -110q129 -111 129 -307q11 -135 -90 -291
q-21 -31 -69 -74q-16 -15 -72 -63l-86 -68q-63 -49 -178 -113q-136 -78 -208.5 -142.5t-94.5 -137.5z" />
    <glyph glyph-name="three" unicode="3" horiz-adv-x="1148" 
d="M717 770v-4q153 -20 241.5 -118.5t88.5 -246.5q0 -209 -138 -317q-136 -109 -352 -109q-233 0 -367.5 117.5t-130.5 333.5h185q9 -287 307 -287q137 0 224 73t87 198q0 128 -83.5 200t-221.5 72q-55 0 -104 -6v160q10 -2 39 -2h36q115 0 195 65q82 67 82 180
q0 111 -70.5 173.5t-187.5 62.5q-260 0 -266 -273h-185q5 200 122.5 314t328.5 114q202 0 322 -102.5t120 -290.5q0 -120 -72.5 -198.5t-199.5 -108.5z" />
    <glyph glyph-name="four" unicode="4" horiz-adv-x="1161" 
d="M930 502h162v-156h-162v-346h-185v346h-655v170l680 946h160v-960zM741 1169l-475 -667h479v667h-4z" />
    <glyph glyph-name="five" unicode="5" horiz-adv-x="1142" 
d="M584 956q205 0 338 -127t133 -366q0 -212 -129 -350q-126 -138 -375 -138q-199 0 -348 113q-151 115 -154 303h184q10 -112 98.5 -182t219.5 -70q146 0 232.5 82.5t86.5 241.5q0 156 -86 248t-223 92q-189 0 -272 -148l-185 19l115 788h717v-155h-580l-77 -504l4 -4
q37 73 120.5 115t180.5 42z" />
    <glyph glyph-name="six" unicode="6" horiz-adv-x="1148" 
d="M623 934q203 0 327 -133q125 -131 125 -338q0 -67 -16 -133t-53 -131t-92 -114t-141 -79.5t-191 -30.5q-504 0 -504 699q0 321 110 547q61 119 169 184t255 65q178 0 290.5 -105t129.5 -286h-184q-12 104 -79 170t-165 66q-104 0 -179 -55.5t-112 -155.5
q-66 -174 -63 -440l4 -5q77 275 369 275zM590 139q137 0 219 88t82 224q0 144 -80.5 234.5t-220.5 90.5q-143 0 -220 -90t-77 -235q0 -138 77.5 -225t219.5 -87z" />
    <glyph glyph-name="seven" unicode="7" horiz-adv-x="1138" 
d="M102 1307v155h940v-149q-219 -216 -378 -594q-158 -384 -179 -719h-184q24 372 201 760q176 389 403 547h-803z" />
    <glyph glyph-name="eight" unicode="8" horiz-adv-x="1138" 
d="M725 774q138 -26 242 -123q100 -93 100 -233q0 -204 -141 -324q-140 -119 -351 -119q-218 0 -360 115q-141 114 -141 328q0 134 100 231q101 98 234 125q-120 31 -201 119t-82 197q-3 163 115 272q117 108 327 108q219 0 330 -102t111 -278q0 -111 -82 -199
q-85 -88 -201 -117zM309 1083q0 -113 76.5 -182.5t189.5 -69.5q105 0 176.5 72t71.5 180q0 104 -72 168t-184 64t-185 -64t-73 -168zM575 139q132 0 220 76t88 197q0 117 -95 200q-92 86 -215 86q-132 0 -223 -82q-92 -83 -92 -206q0 -126 87.5 -198.5t229.5 -72.5z" />
    <glyph glyph-name="nine" unicode="9" horiz-adv-x="1148" 
d="M565 1470q504 0 504 -698q0 -327 -113 -547q-58 -119 -166 -184.5t-255 -65.5q-178 0 -290.5 105.5t-129.5 286.5h184q12 -104 79 -170t165 -66q104 0 179 55t112 154q66 177 63 442l-4 4q-77 -274 -369 -274q-202 0 -329 133q-123 132 -123 338q0 67 16 132.5t53 130.5
t92 114t141 79.5t191 30.5zM557 670q143 0 220 90t77 235q0 138 -77.5 225t-219.5 87q-135 0 -219 -90q-82 -88 -82 -222q0 -144 80.5 -234.5t220.5 -90.5z" />
    <glyph glyph-name="colon" unicode=":" horiz-adv-x="569" 
d="M397 1059v-228h-227v228h227zM170 0v227h227v-227h-227z" />
    <glyph glyph-name="semicolon" unicode=";" horiz-adv-x="569" 
d="M397 1059v-228h-227v228h227zM170 0v227h227v-207q3 -254 -225 -321v102q60 22 92.5 80.5t26.5 118.5h-121z" />
    <glyph glyph-name="less" unicode="&#x3c;" horiz-adv-x="1228" 
d="M1135 1053v-140l-871 -395l871 -395v-139l-1041 471v127z" />
    <glyph glyph-name="equal" unicode="=" horiz-adv-x="1228" 
d="M1130 795v-140h-1032v140h1032zM98 242v139h1032v-139h-1032z" />
    <glyph glyph-name="greater" unicode="&#x3e;" horiz-adv-x="1228" 
d="M94 -16v139l871 395l-871 395v140l1041 -471v-127z" />
    <glyph glyph-name="question" unicode="?" horiz-adv-x="1138" 
d="M303 1067h-174q-4 208 111 319t331 111q197 0 315 -110t118 -300q0 -73 -29 -149q-23 -58 -60 -104q-28 -35 -88 -95q-36 -35 -49.5 -48.5t-31.5 -33.5t-39 -47q-58 -72 -58 -174v-80h-174v97q3 69 24.5 127t53 99t69 78t73.5 72t65 72.5t45.5 89.5t13.5 113
q-8 113 -73 176t-175 63q-144 0 -206 -65.5t-62 -210.5zM446 0v227h228v-227h-228z" />
    <glyph glyph-name="at" unicode="@" horiz-adv-x="1638" 
d="M1266 1135l-172 -582q-23 -84 -23 -104q0 -64 49 -64q94 0 189 154q94 155 94 317q0 234 -166 381q-163 147 -389 147q-260 0 -442 -194q-181 -193 -181 -463q0 -274 187 -461q188 -188 446 -188q145 0 282.5 67.5t225.5 180.5h129q-100 -167 -271.5 -264t-369.5 -97
q-324 0 -547 223q-221 226 -221 549q0 314 223 537t537 223q290 0 491 -180q205 -178 205 -451q0 -124 -47 -239t-123 -193q-73 -75 -155.5 -118.5t-153.5 -43.5q-62 0 -95 47.5t-16 126.5h-6q-37 -84 -113 -131t-161 -47q-128 0 -211 92q-82 94 -82 232q0 226 137 403
q138 179 344 179q81 0 146 -56.5t77 -146.5l47 164h136zM541 606q0 -88 45 -141t123 -53q126 0 221 145q96 149 96 287q0 74 -51 131q-53 59 -115 59q-133 0 -227 -141q-92 -139 -92 -287z" />
    <glyph glyph-name="A" unicode="A" horiz-adv-x="1333" 
d="M1350 0h-220l-172 467h-596l-174 -467h-204l575 1462h215zM666 1303h-4l-244 -680h489z" />
    <glyph glyph-name="B" unicode="B" horiz-adv-x="1372" 
d="M952 766v-4q144 -3 248 -107q103 -103 103 -235q0 -170 -119 -295t-326 -125h-706v1462h530q301 0 387 -53q172 -102 172 -305q0 -132 -73 -222.5t-216 -115.5zM774 1298h-428v-464h428q149 0 211 57.5t62 175.5q0 127 -66 179t-207 52zM346 164h488q129 0 201.5 67.5
t72.5 188.5q0 122 -73.5 186t-203.5 64h-485v-506z" />
    <glyph glyph-name="C" unicode="C" horiz-adv-x="1513" 
d="M1413 1040h-194q-26 144 -135 218.5t-275 74.5q-250 0 -393 -174q-144 -176 -144 -418q0 -262 144 -438q143 -174 399 -174q184 0 295 91t131 263h195q-29 -260 -193 -389t-444 -129q-333 0 -527 215q-194 218 -194 547q0 327 201 549q203 221 532 221q242 0 410 -115
q168 -113 192 -342z" />
    <glyph glyph-name="D" unicode="D" horiz-adv-x="1429" 
d="M147 1462h502q326 0 514 -182q189 -183 189 -514q0 -369 -176.5 -567.5t-526.5 -198.5h-502v1462zM342 164h324q59 0 110.5 10.5t118.5 42.5q74 34 129.5 94.5t93 170.5t39.5 257q0 264 -123.5 411.5t-363.5 147.5h-328v-1134z" />
    <glyph glyph-name="E" unicode="E" horiz-adv-x="1257" 
d="M346 670v-506h821v-164h-1015v1462h1009v-164h-815v-464h772v-164h-772z" />
    <glyph glyph-name="F" unicode="F" horiz-adv-x="1193" 
d="M1112 1462v-164h-766v-464h715v-164h-715v-670h-194v1462h960z" />
    <glyph glyph-name="G" unicode="G" horiz-adv-x="1550" 
d="M838 586v164h610l-18 -750h-119l-33 274q-71 -201 -221 -262q-66 -28 -121.5 -37.5t-132.5 -9.5q-321 0 -514 217q-191 218 -191 520q0 336 183 566q180 229 514 229q259 0 419 -122t189 -363h-195q-20 161 -127.5 241t-285.5 80q-249 0 -375 -182q-127 -183 -127 -438
q0 -243 133 -414q135 -170 377 -170q224 0 346 125q124 127 115 332h-426z" />
    <glyph glyph-name="H" unicode="H" horiz-adv-x="1482" 
d="M1137 815v647h194v-1462h-194v651h-791v-651h-194v1462h194v-647h791z" />
    <glyph glyph-name="I" unicode="I" horiz-adv-x="522" 
d="M164 0v1462h194v-1462h-194z" />
    <glyph glyph-name="J" unicode="J" horiz-adv-x="1050" 
d="M907 1462v-1097q0 -168 -102 -285q-103 -115 -330 -115q-205 0 -315.5 110t-110.5 316v49h191v-20q0 -146 55 -218.5t184 -72.5q124 0 179 65.5t55 198.5v1069h194z" />
    <glyph glyph-name="K" unicode="K" horiz-adv-x="1363" 
d="M1364 0h-246l-526 741l-246 -229v-512h-194v1462h194v-729l741 729h252l-614 -588z" />
    <glyph glyph-name="L" unicode="L" horiz-adv-x="1136" 
d="M346 1462v-1298h774v-164h-968v1462h194z" />
    <glyph glyph-name="M" unicode="M" horiz-adv-x="1759" 
d="M881 211l452 1251h275v-1462h-185v1217h-4l-442 -1217h-193l-444 1217h-4v-1217h-184v1462h274z" />
    <glyph glyph-name="N" unicode="N" horiz-adv-x="1501" 
d="M1165 276v1186h185v-1462h-213l-797 1174h-4v-1174h-184v1462h206l803 -1186h4z" />
    <glyph glyph-name="O" unicode="O" horiz-adv-x="1613" 
d="M410 1386q170 111 397 111q225 0 395 -111q170 -108 252 -280q82 -168 82 -375q0 -209 -84 -379t-250 -278q-171 -109 -395 -109q-226 0 -397 109q-167 109 -250 280q-82 171 -82 377q0 208 84 378t248 277zM508 219q128 -90 299 -90t299 90q123 89 180 225
q56 135 57.5 285t-59.5 289t-178 223q-127 92 -299 92t-299 -92q-122 -86 -180 -223q-57 -135 -58.5 -285t60 -289t178.5 -225z" />
    <glyph glyph-name="P" unicode="P" horiz-adv-x="1302" 
d="M152 1462h624q216 0 332.5 -112.5t116.5 -319.5q0 -208 -116.5 -320.5t-332.5 -111.5h-430v-598h-194v1462zM346 762h365q319 -3 319 268q0 268 -319 268h-365v-536z" />
    <glyph glyph-name="Q" unicode="Q" horiz-adv-x="1613" 
d="M1536 731q0 -157 -61 -319q-61 -158 -185 -273q91 -73 162 -76l-80 -129q-63 3 -209 113q-152 -82 -356 -82q-226 0 -397 109q-167 109 -250 280q-82 171 -82 377q0 207 82 375q83 174 250 280q170 111 397 111q225 0 395 -111q166 -106 250 -276t84 -379zM807 129
q113 0 209 41q-96 81 -215 127l102 119q85 -26 248 -158q92 83 141 209t49 264q0 339 -235 510q-127 92 -299 92t-299 -92q-236 -172 -236 -510q0 -154 56 -287q57 -136 180 -225q128 -90 299 -90z" />
    <glyph glyph-name="R" unicode="R" horiz-adv-x="1384" 
d="M1217 334q24 -104 53 -182q25 -67 78 -132v-20h-211q-39 51 -60 106q-20 53 -39 140q-14 74 -22 104q-37 130 -103.5 196t-177.5 66h-387v-612h-194v1462h622q231 0 357.5 -106.5t126.5 -288.5q0 -314 -289 -393q105 -23 155 -107q57 -84 91 -233zM348 1298v-522h420
q295 0 295 291q0 231 -287 231h-428z" />
    <glyph glyph-name="S" unicode="S" horiz-adv-x="1343" 
d="M1206 1042h-194q-17 152 -101 221.5t-241 69.5q-141 0 -244 -59q-100 -57 -100 -191q0 -60 32 -103t86 -68t124.5 -42.5t148 -32.5t155 -32.5t148 -48t124.5 -74t86 -115t32 -166.5q0 -145 -93 -249q-165 -187 -485 -187q-265 0 -438 123q-172 126 -172 375h194
q0 -171 117 -254q118 -80 299 -80q157 0 270 61t113 205q0 71 -32 122t-86 80.5t-124.5 50t-148 35t-155 30.5t-148 42t-124.5 63.5t-86 101t-32 149.5q0 205 158 317q159 111 381 111q245 0 387 -114.5t149 -340.5z" />
    <glyph glyph-name="T" unicode="T" horiz-adv-x="1183" 
d="M8 1462h1168v-164h-488v-1298h-192v1298h-488v164z" />
    <glyph glyph-name="U" unicode="U" horiz-adv-x="1454" 
d="M1315 1462v-934q0 -275 -149 -419t-427 -144q-293 0 -446.5 141t-153.5 422v934h195v-934q0 -195 104 -297t301 -102q186 0 283.5 102t97.5 297v934h195z" />
    <glyph glyph-name="V" unicode="V" horiz-adv-x="1257" 
d="M629 195l424 1267h204l-507 -1460l-246 -2l-504 1462h205l420 -1267h4z" />
    <glyph glyph-name="W" unicode="W" horiz-adv-x="1880" 
d="M1370 205l289 1257h205l-371 -1462h-244l-309 1229h-4l-322 -1229h-243l-355 1462h205l275 -1257h4l307 1257h264l295 -1257h4z" />
    <glyph glyph-name="X" unicode="X" horiz-adv-x="1255" 
d="M741 752l514 -752h-237l-393 602l-406 -602h-219l510 752l-481 710h233l367 -567l379 567h217z" />
    <glyph glyph-name="Y" unicode="Y" horiz-adv-x="1318" 
d="M1098 1462h221l-559 -864v-598h-195v598l-565 864h231l439 -696z" />
    <glyph glyph-name="Z" unicode="Z" horiz-adv-x="1249" 
d="M1184 1298l-908 -1134h932v-164h-1163v164l911 1134h-841v164h1069v-164z" />
    <glyph glyph-name="bracketleft" unicode="[" horiz-adv-x="530" 
d="M530 1497v-139h-219v-1624h219v-140h-383v1903h383z" />
    <glyph glyph-name="backslash" unicode="\" horiz-adv-x="681" 
d="M113 1497l606 -1532h-150l-606 1532h150z" />
    <glyph glyph-name="bracketright" unicode="]" horiz-adv-x="530" 
d="M0 -406v140h219v1624h-219v139h383v-1903h-383z" />
    <glyph glyph-name="asciicircum" unicode="^" horiz-adv-x="1228" 
d="M102 541l447 886h131l446 -886h-143l-371 737l-364 -737h-146z" />
    <glyph glyph-name="underscore" unicode="_" horiz-adv-x="1024" 
d="M0 -256v102h1024v-102h-1024z" />
    <glyph glyph-name="grave" unicode="`" horiz-adv-x="956" 
d="M258 1499h223l176 -293h-131z" />
    <glyph glyph-name="a" unicode="a" horiz-adv-x="1105" 
d="M991 711v-568q0 -80 17 -143h-185q-8 49 -8 236h-2q-25 -127 -121.5 -194t-249.5 -67q-93 0 -164 19.5t-112 49t-66.5 72t-34 81.5t-8.5 84q0 97 47 166.5t129 101.5q84 30 158 45q77 15 162 24q86 9 117 19q88 25 112.5 52t24.5 89q0 74 -65 114t-183 40
q-159 0 -209 -82q-19 -34 -24.5 -51.5t-10.5 -50.5h-184q11 97 39 151q94 184 385 184q109 0 195.5 -27.5t132.5 -68.5q46 -40 69 -96q39 -82 39 -180zM807 492v170q-13 -67 -77 -101.5t-216 -64.5q-147 -27 -206.5 -71.5t-59.5 -139.5q0 -74 58 -120t157 -46q174 0 259 88
t85 285z" />
    <glyph glyph-name="b" unicode="b" horiz-adv-x="1183" 
d="M641 1083q233 0 356 -159q125 -155 125 -398q0 -240 -125 -395q-126 -156 -358 -156q-240 0 -342 228h-4v-203h-178v1462h186l-4 -614h6q28 112 121.5 173.5t216.5 61.5zM616 129q166 0 242 117q76 119 76 293q0 164 -82 274q-79 113 -240 113q-146 0 -229 -100.5
t-88 -268.5v-12q0 -176 74 -297q76 -119 247 -119z" />
    <glyph glyph-name="c" unicode="c" horiz-adv-x="1130" 
d="M1071 739h-180q-52 193 -291 193q-168 0 -260 -121q-90 -122 -90 -291q0 -155 90 -274q88 -117 248 -117q136 0 213.5 51t101.5 164h178q-41 -195 -161.5 -282t-335.5 -87q-239 0 -377 150q-137 149 -137 395q0 243 147 402q148 161 389 161q199 0 324 -94
q126 -95 141 -250z" />
    <glyph glyph-name="d" unicode="d" horiz-adv-x="1175" 
d="M889 848l-4 614h184v-1462h-178v203h-4q-102 -228 -342 -228q-233 0 -359 156q-125 155 -125 395q0 242 123 398q126 159 359 159q123 0 216.5 -61.5t121.5 -173.5h8zM567 129q173 0 246 119q76 119 76 297v14q-5 168 -88 267.5t-230 99.5q-159 0 -241 -113
q-80 -112 -80 -274q0 -174 76 -293q76 -117 241 -117z" />
    <glyph glyph-name="e" unicode="e" horiz-adv-x="1144" 
d="M586 1083q110 0 199 -38.5t144 -101t91.5 -143.5t49.5 -162.5t9 -162.5h-837q27 -346 350 -346q114 0 190 53t99 154h180q-35 -172 -159 -266.5t-310 -94.5q-248 0 -387.5 150t-147.5 407q0 236 152 394q151 157 377 157zM248 631h645q-8 131 -93 216t-214 85
q-128 0 -220.5 -82.5t-117.5 -218.5z" />
    <glyph glyph-name="f" unicode="f" horiz-adv-x="655" 
d="M395 1059h203v-150h-201v-909h-180v909h-176v150h176v201q0 89 63.5 145.5t168.5 56.5h137v-153h-105q-86 0 -86 -76v-174z" />
    <glyph glyph-name="g" unicode="g" horiz-adv-x="1189" 
d="M891 856v203h184v-1030q0 -232 -118.5 -345.5t-383.5 -113.5q-115 -3 -212 27.5t-163.5 103.5t-72.5 180h184q6 -81 79 -119t185 -38q178 0 248 68.5t70 236.5v202h-4q-25 -118 -121 -187t-217 -69q-234 0 -361 160t-127 397q0 239 125 394q127 157 359 157
q240 0 342 -227h4zM567 141q85 1 151 39.5t103 101t53 137.5t9 154q0 43 -9 88.5t-31.5 94.5t-55.5 87t-86 62.5t-119 24.5q-153 0 -235.5 -106.5t-82.5 -278.5q0 -162 72 -285q73 -119 231 -119z" />
    <glyph glyph-name="h" unicode="h" horiz-adv-x="1153" 
d="M637 1083q199 0 302 -102.5t103 -284.5v-696h-184v678q0 135 -61.5 193.5t-184.5 58.5q-138 0 -219.5 -70.5t-93.5 -208.5v-651h-184v1462h180v-622q37 119 128 181t214 62z" />
    <glyph glyph-name="i" unicode="i" horiz-adv-x="434" 
d="M311 1462v-213h-188v213h188zM125 0v1059h184v-1059h-184z" />
    <glyph glyph-name="j" unicode="j" horiz-adv-x="468" 
d="M346 1462v-213h-188v213h188zM344 1059v-1260q0 -202 -194 -202h-187v153h103q94 0 94 68v1241h184z" />
    <glyph glyph-name="k" unicode="k" horiz-adv-x="1044" 
d="M1069 0h-221l-393 553l-160 -141v-412h-184v1462h184v-846l491 443h240l-438 -389z" />
    <glyph glyph-name="l" unicode="l" horiz-adv-x="430" 
d="M123 0v1462h184v-1462h-184z" />
    <glyph glyph-name="m" unicode="m" horiz-adv-x="1732" 
d="M1264 1083q171 0 264.5 -76.5t93.5 -230.5v-776h-182v694q0 119 -45.5 177.5t-157.5 58.5q-130 0 -203 -78.5t-73 -228.5v-623h-183v694q0 117 -45.5 176.5t-150.5 59.5q-63 0 -114 -24t-81.5 -59t-51 -79t-28.5 -80t-8 -65v-623h-184v1059h174v-230h4q34 124 125.5 189
t216.5 65q111 0 193.5 -60.5t99.5 -166.5h2q35 111 126.5 169t207.5 58z" />
    <glyph glyph-name="n" unicode="n" 
d="M637 1083q197 0 300 -102.5t103 -284.5v-696h-184v678q0 135 -61 193.5t-183 58.5q-159 0 -236 -87.5t-77 -281.5v-561h-184v1059h174v-230h4q36 125 127 189.5t217 64.5z" />
    <glyph glyph-name="o" unicode="o" horiz-adv-x="1179" 
d="M57 528q0 240 140 398q139 157 383 157t383 -157t139 -398q0 -240 -139 -397q-138 -156 -383 -156t-383 156q-140 158 -140 397zM918 528q0 187 -99 295q-95 109 -239 109q-142 0 -242 -109q-96 -110 -96 -295q0 -182 96 -292q98 -107 242 -107q145 0 239 107
q99 108 99 292z" />
    <glyph glyph-name="p" unicode="p" horiz-adv-x="1189" 
d="M647 1083q234 0 357 -159q124 -154 124 -398q0 -241 -124 -395q-126 -156 -359 -156q-240 0 -342 228h-4v-613h-184v1469h192l-4 -211h6q28 112 121.5 173.5t216.5 61.5zM623 129q165 0 241 117q76 119 76 293q0 164 -82 274q-79 113 -240 113q-146 0 -229 -100.5
t-88 -268.5v-12q0 -176 74 -297q76 -119 248 -119z" />
    <glyph glyph-name="q" unicode="q" horiz-adv-x="1189" 
d="M887 848l-4 211h192v-1469h-184v613h-4q-102 -228 -342 -228q-233 0 -359 156q-125 155 -125 395q0 242 123 398q126 159 359 159q123 0 216.5 -61.5t121.5 -173.5h6zM567 129q173 0 246 119q76 119 76 297v12q-5 168 -88.5 268.5t-229.5 100.5q-159 0 -241 -113
q-80 -112 -80 -274q0 -174 76 -293q76 -117 241 -117z" />
    <glyph glyph-name="r" unicode="r" horiz-adv-x="751" 
d="M715 1063v-174q-194 31 -305 -78.5t-111 -339.5v-471h-184v1059h174v-264h4q43 156 156 224.5t266 43.5z" />
    <glyph glyph-name="s" unicode="s" horiz-adv-x="1042" 
d="M49 311h178q15 -186 273 -186q111 0 192 37q84 38 84 125q0 73 -63 121q-22 19 -72 34q-68 21 -82 23q-22 7 -94 20q-123 23 -213 58q-83 35 -122.5 89t-45.5 150q0 148 119 224q121 77 276 77q197 0 303 -65q107 -64 131 -248h-170q-22 94 -81.5 129t-169.5 35
q-97 0 -160.5 -35.5t-63.5 -105.5q0 -49 29 -79t86 -50l68 -21l81 -16q20 -3 82 -17q144 -33 236 -88q111 -65 111 -213q0 -119 -76 -198q-128 -136 -393 -136q-186 0 -308 76q-123 76 -135 260z" />
    <glyph glyph-name="t" unicode="t" horiz-adv-x="651" 
d="M582 1059v-152h-211v-686q0 -37 16 -51t62 -14h122v-156h-206q-95 0 -135 51t-40 152v704h-174v152h174v252l175 86h6v-338h211z" />
    <glyph glyph-name="u" unicode="u" 
d="M852 498v561h184v-1059h-174v229h-4q-36 -125 -127 -189.5t-217 -64.5q-197 0 -300 102.5t-103 284.5v697h184v-678q0 -135 61 -193.5t183 -58.5q159 0 236 87.5t77 281.5z" />
    <glyph glyph-name="v" unicode="v" horiz-adv-x="1073" 
d="M541 164l309 895h207l-412 -1059h-211l-418 1059h211l310 -895h4z" />
    <glyph glyph-name="w" unicode="w" horiz-adv-x="1495" 
d="M1067 143l219 916h193l-295 -1059h-264l-162 846h-4l-191 -846h-248l-299 1059h195l221 -916h8l191 916h237l195 -916h4z" />
    <glyph glyph-name="x" unicode="x" horiz-adv-x="1056" 
d="M623 561l417 -561h-223l-303 426l-287 -426h-211l400 561l-371 498h223l258 -365l260 365h209z" />
    <glyph glyph-name="y" unicode="y" horiz-adv-x="1024" 
d="M524 201l299 858h185l-459 -1264q-70 -205 -268 -205h-144v154h117q50 0 92.5 36.5t61.5 94.5l28 78l-420 1106h197z" />
    <glyph glyph-name="z" unicode="z" horiz-adv-x="974" 
d="M911 940l-653 -784h676v-156h-893v133l645 772h-598v154h823v-119z" />
    <glyph glyph-name="braceleft" unicode="{" horiz-adv-x="681" 
d="M633 1497v-123h-103q-98 0 -98 -176v-375q0 -124 -61 -194q-62 -68 -117 -80v-6q58 -9 117 -74q61 -64 61 -201v-374q0 -177 98 -177h103v-123h-144q-82 0 -153 74q-68 71 -68 195v373q0 106 -49.5 172.5t-120.5 66.5v139q69 0 119.5 70t50.5 172v373q0 123 68 194
q71 74 153 74h144z" />
    <glyph glyph-name="bar" unicode="|" horiz-adv-x="454" 
d="M158 -438v2048h139v-2048h-139z" />
    <glyph glyph-name="braceright" unicode="}" horiz-adv-x="681" 
d="M49 -406v123h103q98 0 98 177v374q0 126 61 193q61 70 117 82v6q-57 9 -119 74q-59 65 -59 200v371q0 180 -98 180h-103v123h144q83 0 151 -74q70 -70 70 -194v-373q0 -106 49.5 -174t120.5 -68v-139q-69 0 -119.5 -69t-50.5 -170v-373q0 -125 -70 -195q-68 -74 -151 -74
h-144z" />
    <glyph glyph-name="asciitilde" unicode="~" horiz-adv-x="1228" 
d="M1014 653l73 -102q-60 -91 -117 -133.5t-139 -42.5q-92 0 -208 67q-136 80 -236 80q-102 0 -172 -155l-74 102q86 176 256 176q77 0 228 -65q23 -10 69 -35q97 -47 140 -47q11 0 21.5 2.5t17.5 4.5t17 8.5t14 9.5t16.5 12t15.5 12q21 21 39 51z" />
    <glyph glyph-name="exclamdown" unicode="&#xa1;" horiz-adv-x="530" 
d="M379 1059v-228h-227v228h227zM168 -406v451l51 637h92l51 -637v-451h-194z" />
    <glyph glyph-name="cent" unicode="&#xa2;" horiz-adv-x="1138" 
d="M885 387h174q-18 -162 -125 -281q-108 -117 -297 -129v-213h-80v213q-217 12 -340 152t-123 387q0 233 119 391q118 161 344 176v195h80v-193q375 -18 416 -366h-179q-41 194 -237 209v-797q105 10 167.5 78.5t80.5 177.5zM279 516q0 -176 73.5 -273.5t204.5 -111.5v797
q-132 -14 -205 -118.5t-73 -293.5z" />
    <glyph glyph-name="sterling" unicode="&#xa3;" horiz-adv-x="1138" 
d="M1026 195l102 -134q-113 -96 -313 -96q-69 0 -203 41q-128 43 -276 43q-95 0 -205 -72l-80 121q139 119 193 187q78 104 78 194q0 80 -54 191h-192v92h141q-98 174 -98 319q0 187 135 301q139 115 332 115q492 0 483 -487h-184q-4 177 -72 254t-217 77q-125 0 -209 -75
q-84 -78 -84 -191q0 -73 23 -141l22 -55l62 -117h354v-92h-309q41 -77 41 -154q0 -132 -88 -227q-41 -47 -85.5 -83t-136.5 -100l4 -4q143 82 263 82q104 0 219 -28q124 -37 172 -37q88 0 182 76z" />
    <glyph glyph-name="currency" unicode="&#xa4;" horiz-adv-x="1138" 
d="M1081 719q0 -172 -106 -307l112 -115l-96 -96l-110 116q-137 -110 -308 -110q-176 0 -313 110l-110 -118l-99 98l111 119q-105 138 -105 299q0 170 107 307l-113 115l101 100l114 -115q138 105 309 105q164 0 295 -101l115 113l102 -104l-112 -113q106 -135 106 -303z
M573 360q143 0 238 105q96 107 96 254q0 143 -96 250q-94 104 -236 104q-144 0 -245 -104q-99 -102 -99 -254q0 -150 99 -252q103 -103 243 -103z" />
    <glyph glyph-name="yen" unicode="&#xa5;" horiz-adv-x="1138" 
d="M475 0v356h-289v123h289v86l-37 68h-252v123h189l-375 706h223l357 -723l346 723h213l-365 -706h191v-123h-258l-37 -68v-86h295v-123h-295v-356h-195z" />
    <glyph glyph-name="brokenbar" unicode="&#xa6;" horiz-adv-x="454" 
d="M297 1354v-512h-139v512h139zM158 -182v512h139v-512h-139z" />
    <glyph glyph-name="section" unicode="&#xa7;" horiz-adv-x="1138" 
d="M969 1128h-174q-2 94 -64 154.5t-160 60.5q-88 0 -141 -46t-53 -130q0 -85 94 -155q64 -46 211 -127l35 -19q85 -46 132 -77t99 -78q109 -97 109 -242q0 -91 -65.5 -165.5t-172.5 -117.5q146 -103 146 -264q0 -146 -109 -235q-110 -93 -274 -93q-186 0 -303 101t-129 278
h174q1 -101 73.5 -163t180.5 -62q85 0 145.5 46.5t60.5 123.5q0 94 -92 158q-52 43 -94 65q-46 28 -53 31q-6 4 -117 66q-91 49 -140 81t-102 82q-114 108 -114 265q0 90 68 165.5t167 102.5q-110 104 -110 231q0 155 112 242q116 90 266 90q181 0 285.5 -94t108.5 -275z
M240 674q0 -79 57 -139q43 -40 57 -50q29 -18 31 -20q5 -2 37 -23l33 -18q148 -77 286 -170q148 62 148 190q7 50 -58 125q-5 6 -17 16.5t-23 19t-23 18t-14 10.5q-36 24 -45 29l-37 24q-241 144 -283 174q-64 -21 -106.5 -72.5t-42.5 -113.5z" />
    <glyph glyph-name="dieresis" unicode="&#xa8;" horiz-adv-x="1212" 
d="M307 1462h185v-213h-185v213zM692 1462h185v-213h-185v213z" />
    <glyph glyph-name="copyright" unicode="&#xa9;" horiz-adv-x="1638" 
d="M1589 735q0 -324 -225 -549q-226 -221 -543 -221q-318 0 -547 221q-225 225 -225 549t227 541q229 221 545 221q317 0 543 -221q225 -218 225 -541zM821 78q265 0 447 188t182 469q0 273 -182 461t-447 188q-270 0 -452 -188q-181 -187 -181 -461q0 -282 181 -469
q182 -188 452 -188zM1096 584h131q-32 -147 -136 -234.5t-245 -87.5q-205 0 -330 131t-125 338q0 208 121 338q120 129 328 129q154 0 257.5 -81.5t127.5 -229.5h-129q-17 89 -86 143.5t-168 54.5q-145 0 -228.5 -96.5t-83.5 -253.5q0 -147 86 -256q85 -104 230 -104
q99 0 167.5 57.5t82.5 151.5z" />
    <glyph glyph-name="ordfeminine" unicode="&#xaa;" horiz-adv-x="1105" 
d="M991 711v-568q0 -80 17 -143h-185q-8 49 -8 236h-2q-25 -127 -121.5 -194t-249.5 -67q-93 0 -164 19.5t-112 49t-66.5 72t-34 81.5t-8.5 84q0 97 47 166.5t129 101.5q84 30 158 45q77 15 162 24q86 9 117 19q88 25 112.5 52t24.5 89q0 74 -65 114t-183 40
q-159 0 -209 -82q-19 -34 -24.5 -51.5t-10.5 -50.5h-184q11 97 39 151q94 184 385 184q109 0 195.5 -27.5t132.5 -68.5q46 -40 69 -96q39 -82 39 -180zM807 492v170q-13 -67 -77 -101.5t-216 -64.5q-147 -27 -206.5 -71.5t-59.5 -139.5q0 -74 58 -120t157 -46q174 0 259 88
t85 285z" />
    <glyph glyph-name="guillemotleft" unicode="&#xab;" horiz-adv-x="948" 
d="M414 233l-312 246v180l312 246v-176l-205 -160l205 -159v-177zM815 233l-311 246v180l311 246v-176l-205 -160l205 -159v-177z" />
    <glyph glyph-name="logicalnot" unicode="&#xac;" horiz-adv-x="1228" 
d="M1130 795v-572h-139v432h-893v140h1032z" />
    <glyph glyph-name="registered" unicode="&#xae;" horiz-adv-x="1638" 
d="M1589 735q0 -324 -225 -549q-226 -221 -543 -221q-318 0 -547 221q-225 225 -225 549t227 541q229 221 545 221q317 0 543 -221q225 -218 225 -541zM821 78q265 0 447 188t182 469q0 273 -182 461t-447 188q-272 0 -452 -186q-181 -187 -181 -463q0 -282 181 -469
q182 -188 452 -188zM522 285v895h346q314 0 314 -256q0 -220 -236 -244l256 -395h-149l-244 385h-147v-385h-140zM662 1067v-285h145q70 0 135 11q100 23 100 137q0 137 -196 137h-184z" />
    <glyph glyph-name="degree" unicode="&#xb0;" horiz-adv-x="1177" 
d="M731 1221q-67 -67 -161.5 -67t-163.5 67q-68 67 -68 161t68 162q69 68 163.5 68t161.5 -68q69 -67 69 -161.5t-69 -161.5zM668 1479q-38 41 -98.5 41t-98.5 -41q-38 -38 -38 -98t38 -101q38 -38 98.5 -38t98.5 38q38 41 38 101t-38 98z" />
    <glyph glyph-name="plusminus" unicode="&#xb1;" horiz-adv-x="1228" 
d="M98 555v139h447v340h139v-340h446v-139h-446v-342h-139v342h-447zM98 0v139h1032v-139h-1032z" />
    <glyph glyph-name="acute" unicode="&#xb4;" horiz-adv-x="1110" 
d="M557 1499h223l-268 -293h-131z" />
    <glyph glyph-name="middot" unicode="&#xb7;" horiz-adv-x="569" 
d="M416 637q0 -50 -40 -90.5t-89 -40.5q-40 -2 -73 22t-48.5 59t-9.5 75t37 67q27 31 67 37t75 -8.5t59 -47.5t22 -73z" />
    <glyph glyph-name="cedilla" unicode="&#xb8;" horiz-adv-x="1705" 
 />
    <glyph glyph-name="ordmasculine" unicode="&#xba;" horiz-adv-x="1179" 
d="M57 528q0 240 140 398q139 157 383 157t383 -157t139 -398q0 -240 -139 -397q-138 -156 -383 -156t-383 156q-140 158 -140 397zM918 528q0 187 -99 295q-95 109 -239 109q-142 0 -242 -109q-96 -110 -96 -295q0 -182 96 -292q98 -107 242 -107q145 0 239 107
q99 108 99 292z" />
    <glyph glyph-name="guillemotright" unicode="&#xbb;" horiz-adv-x="948" 
d="M133 905l311 -246v-180l-311 -246v177l205 159l-205 160v176zM535 905l311 -246v-180l-311 -246v177l204 159l-204 160v176z" />
    <glyph glyph-name="questiondown" unicode="&#xbf;" horiz-adv-x="1138" 
d="M690 1059v-228h-227v228h227zM856 61h174q3 -214 -123 -352q-127 -139 -336 -139q-197 0 -314.5 110t-117.5 300q0 109 41 184t135 164q76 73 119 127q60 77 60 176v63h174v-80q-3 -69 -24.5 -127t-53 -99t-69 -78t-73.5 -72t-65 -72.5t-45.5 -89.5t-13.5 -113
q8 -113 72.5 -176t174.5 -63q138 0 211.5 91.5t73.5 245.5z" />
    <glyph glyph-name="Agrave" unicode="&#xc0;" horiz-adv-x="1333" 
d="M588 1888l176 -293h-131l-268 293h223zM1350 0h-220l-172 467h-596l-174 -467h-204l575 1462h215zM666 1303h-4l-244 -680h489z" />
    <glyph glyph-name="Aacute" unicode="&#xc1;" horiz-adv-x="1333" 
d="M729 1888h223l-268 -293h-131zM1350 0h-220l-172 467h-596l-174 -467h-204l575 1462h215zM666 1303h-4l-244 -680h489z" />
    <glyph glyph-name="Acircumflex" unicode="&#xc2;" horiz-adv-x="1333" 
d="M803 1595l-141 197l-144 -197h-158l211 293h191l213 -293h-172zM1350 0h-220l-172 467h-596l-174 -467h-204l575 1462h215zM666 1303h-4l-244 -680h489z" />
    <glyph glyph-name="Atilde" unicode="&#xc3;" horiz-adv-x="1333" 
d="M459 1686q-19 -16 -37 -62h-107q47 225 217 225q57 0 150 -41q96 -41 135 -41q66 0 94 91h107q-12 -90 -66 -162q-54 -66 -141 -66q-64 0 -154 41q-101 39 -135 39q-39 0 -63 -24zM1350 0h-220l-172 467h-596l-174 -467h-204l575 1462h215zM666 1303h-4l-244 -680h489z
" />
    <glyph glyph-name="Adieresis" unicode="&#xc4;" horiz-adv-x="1333" 
d="M379 1837h184v-213h-184v213zM764 1837h184v-213h-184v213zM1350 0h-220l-172 467h-596l-174 -467h-204l575 1462h215zM666 1303h-4l-244 -680h489z" />
    <glyph glyph-name="Aring" unicode="&#xc5;" horiz-adv-x="1333" 
d="M825 1602q-67 -68 -161.5 -68t-163.5 68q-68 68 -68 162t68 161q69 67 163.5 67t161.5 -67q69 -68 69 -161.5t-69 -161.5zM762 1860q-38 41 -98.5 41t-98.5 -41q-38 -38 -38 -98t38 -101q38 -38 98.5 -38t98.5 38q38 41 38 101t-38 98zM1350 0h-220l-172 467h-596
l-174 -467h-204l575 1462h215zM666 1303h-4l-244 -680h489z" />
    <glyph glyph-name="AE" unicode="&#xc6;" horiz-adv-x="1896" 
d="M1102 670v-506h731v-164h-915v467h-502l-246 -467h-203l805 1462h1049v-164h-719v-464h676v-164h-676zM858 1303l-358 -680h418v680h-60z" />
    <glyph glyph-name="Ccedilla" unicode="&#xc7;" horiz-adv-x="1513" 
d="M799 -35h-21l-151 -119l4 -4q70 52 180 52q75 0 122.5 -39t47.5 -109q0 -88 -74.5 -132t-187.5 -44q-123 0 -209 45l72 82q45 -25 110 -25q53 0 94 19.5t41 50.5q0 32 -31 52t-79 20q-78 0 -137 -41l-37 67l139 133q-278 37 -442 246q-162 207 -162 508q0 327 201 549
q203 221 532 221q242 0 410 -115q168 -113 192 -342h-194q-26 144 -135 218.5t-275 74.5q-250 0 -393 -174q-144 -176 -144 -418q0 -262 144 -438q143 -174 399 -174q184 0 295 91t131 263h195q-29 -260 -193 -389t-444 -129z" />
    <glyph glyph-name="Egrave" unicode="&#xc8;" horiz-adv-x="1257" 
d="M559 1888l176 -293h-131l-268 293h223zM346 670v-506h821v-164h-1015v1462h1009v-164h-815v-464h772v-164h-772z" />
    <glyph glyph-name="Eacute" unicode="&#xc9;" horiz-adv-x="1257" 
d="M750 1888h223l-268 -293h-132zM346 670v-506h821v-164h-1015v1462h1009v-164h-815v-464h772v-164h-772z" />
    <glyph glyph-name="Ecircumflex" unicode="&#xca;" horiz-adv-x="1257" 
d="M793 1595l-142 197l-143 -197h-158l211 293h191l213 -293h-172zM346 670v-506h821v-164h-1015v1462h1009v-164h-815v-464h772v-164h-772z" />
    <glyph glyph-name="Edieresis" unicode="&#xcb;" horiz-adv-x="1257" 
d="M379 1835h184v-213h-184v213zM764 1835h184v-213h-184v213zM346 670v-506h821v-164h-1015v1462h1009v-164h-815v-464h772v-164h-772z" />
    <glyph glyph-name="Igrave" unicode="&#xcc;" horiz-adv-x="522" 
d="M231 1595l-268 293h223l176 -293h-131zM164 0v1462h194v-1462h-194z" />
    <glyph glyph-name="Iacute" unicode="&#xcd;" horiz-adv-x="522" 
d="M160 1595l176 293h223l-268 -293h-131zM164 0v1462h194v-1462h-194z" />
    <glyph glyph-name="Icircumflex" unicode="&#xce;" horiz-adv-x="522" 
d="M-45 1595l211 293h188l213 -293h-172l-139 197l-143 -197h-158zM164 0v1462h194v-1462h-194z" />
    <glyph glyph-name="Idieresis" unicode="&#xcf;" horiz-adv-x="522" 
d="M-23 1622v213h185v-213h-185zM362 1622v213h185v-213h-185zM164 0v1462h194v-1462h-194z" />
    <glyph glyph-name="Ntilde" unicode="&#xd1;" horiz-adv-x="1501" 
d="M557 1686q-19 -16 -37 -62h-106q46 225 217 225q56 0 149 -41q96 -41 135 -41q67 0 95 91h106q-12 -91 -65 -162q-54 -66 -142 -66q-63 0 -153 41q-101 39 -135 39q-40 0 -64 -24zM1165 276v1186h185v-1462h-213l-797 1174h-4v-1174h-184v1462h206l803 -1186h4z" />
    <glyph glyph-name="Ograve" unicode="&#xd2;" horiz-adv-x="1613" 
d="M770 1595l-268 293h223l176 -293h-131zM410 1386q170 111 397 111q225 0 395 -111q170 -108 252 -280q82 -168 82 -375q0 -209 -84 -379t-250 -278q-171 -109 -395 -109q-226 0 -397 109q-167 109 -250 280q-82 171 -82 377q0 208 84 378t248 277zM508 219
q128 -90 299 -90t299 90q123 89 180 225q56 135 57.5 285t-59.5 289t-178 223q-127 92 -299 92t-299 -92q-122 -86 -180 -223q-57 -135 -58.5 -285t60 -289t178.5 -225z" />
    <glyph glyph-name="Oacute" unicode="&#xd3;" horiz-adv-x="1613" 
d="M694 1595l176 293h224l-269 -293h-131zM410 1386q170 111 397 111q225 0 395 -111q170 -108 252 -280q82 -168 82 -375q0 -209 -84 -379t-250 -278q-171 -109 -395 -109q-226 0 -397 109q-167 109 -250 280q-82 171 -82 377q0 208 84 378t248 277zM508 219
q128 -90 299 -90t299 90q123 89 180 225q56 135 57.5 285t-59.5 289t-178 223q-127 92 -299 92t-299 -92q-122 -86 -180 -223q-57 -135 -58.5 -285t60 -289t178.5 -225z" />
    <glyph glyph-name="Ocircumflex" unicode="&#xd4;" horiz-adv-x="1613" 
d="M504 1595l211 293h190l213 -293h-172l-141 197l-143 -197h-158zM410 1386q170 111 397 111q225 0 395 -111q170 -108 252 -280q82 -168 82 -375q0 -209 -84 -379t-250 -278q-171 -109 -395 -109q-226 0 -397 109q-167 109 -250 280q-82 171 -82 377q0 208 84 378t248 277
zM508 219q128 -90 299 -90t299 90q123 89 180 225q56 135 57.5 285t-59.5 289t-178 223q-127 92 -299 92t-299 -92q-122 -86 -180 -223q-57 -135 -58.5 -285t60 -289t178.5 -225z" />
    <glyph glyph-name="Otilde" unicode="&#xd5;" horiz-adv-x="1613" 
d="M1057 1858h106q-12 -91 -65 -162q-54 -66 -142 -66q-63 0 -153 41q-101 39 -135 39q-40 0 -64 -24q-19 -16 -37 -62h-106q46 225 217 225q56 0 149 -41q96 -41 136 -41q66 0 94 91zM410 1386q170 111 397 111q225 0 395 -111q170 -108 252 -280q82 -168 82 -375
q0 -209 -84 -379t-250 -278q-171 -109 -395 -109q-226 0 -397 109q-167 109 -250 280q-82 171 -82 377q0 208 84 378t248 277zM508 219q128 -90 299 -90t299 90q123 89 180 225q56 135 57.5 285t-59.5 289t-178 223q-127 92 -299 92t-299 -92q-122 -86 -180 -223
q-57 -135 -58.5 -285t60 -289t178.5 -225z" />
    <glyph glyph-name="Odieresis" unicode="&#xd6;" horiz-adv-x="1613" 
d="M524 1622v213h185v-213h-185zM909 1622v213h185v-213h-185zM410 1386q170 111 397 111q225 0 395 -111q170 -108 252 -280q82 -168 82 -375q0 -209 -84 -379t-250 -278q-171 -109 -395 -109q-226 0 -397 109q-167 109 -250 280q-82 171 -82 377q0 208 84 378t248 277z
M508 219q128 -90 299 -90t299 90q123 89 180 225q56 135 57.5 285t-59.5 289t-178 223q-127 92 -299 92t-299 -92q-122 -86 -180 -223q-57 -135 -58.5 -285t60 -289t178.5 -225z" />
    <glyph glyph-name="multiply" unicode="&#xd7;" horiz-adv-x="1228" 
d="M250 45l-111 111l367 364l-365 363l111 110l364 -362l363 364l111 -110l-363 -365l365 -366l-111 -111l-365 369z" />
    <glyph glyph-name="Oslash" unicode="&#xd8;" horiz-adv-x="1611" 
d="M1509 1434l-157 -174q184 -214 184 -529q0 -206 -82 -377q-82 -169 -252 -280q-171 -109 -395 -109q-288 0 -477 168l-158 -172l-68 59l162 179q-188 212 -188 532q0 207 82 375q83 174 250 280q170 111 397 111q288 0 481 -172l156 170zM272 731q0 -233 119 -395
l776 856q-141 141 -360 141q-172 0 -299 -92q-236 -172 -236 -510zM807 129q171 0 299 90q235 174 235 512q0 227 -114 391l-776 -856q140 -137 356 -137z" />
    <glyph glyph-name="Ugrave" unicode="&#xd9;" horiz-adv-x="1454" 
d="M692 1595l-268 293h223l176 -293h-131zM1315 1462v-934q0 -275 -149 -419t-427 -144q-293 0 -446.5 141t-153.5 422v934h195v-934q0 -195 104 -297t301 -102q186 0 283.5 102t97.5 297v934h195z" />
    <glyph glyph-name="Uacute" unicode="&#xda;" horiz-adv-x="1454" 
d="M633 1595l176 293h223l-268 -293h-131zM1315 1462v-934q0 -275 -149 -419t-427 -144q-293 0 -446.5 141t-153.5 422v934h195v-934q0 -195 104 -297t301 -102q186 0 283.5 102t97.5 297v934h195z" />
    <glyph glyph-name="Ucircumflex" unicode="&#xdb;" horiz-adv-x="1454" 
d="M428 1595l211 293h190l213 -293h-172l-141 197l-143 -197h-158zM1315 1462v-934q0 -275 -149 -419t-427 -144q-293 0 -446.5 141t-153.5 422v934h195v-934q0 -195 104 -297t301 -102q186 0 283.5 102t97.5 297v934h195z" />
    <glyph glyph-name="Udieresis" unicode="&#xdc;" horiz-adv-x="1454" 
d="M444 1622v213h185v-213h-185zM829 1622v213h185v-213h-185zM1315 1462v-934q0 -275 -149 -419t-427 -144q-293 0 -446.5 141t-153.5 422v934h195v-934q0 -195 104 -297t301 -102q186 0 283.5 102t97.5 297v934h195z" />
    <glyph glyph-name="Yacute" unicode="&#xdd;" horiz-adv-x="1318" 
d="M774 1888h223l-268 -293h-131zM1098 1462h221l-559 -864v-598h-195v598l-565 864h231l439 -696z" />
    <glyph glyph-name="Thorn" unicode="&#xde;" horiz-adv-x="1327" 
d="M354 0h-194v1462h194v-233h447q216 0 332 -113t116 -321t-116 -319.5t-332 -110.5h-447v-365zM354 1065v-537h381q320 -3 320 267t-320 270h-381z" />
    <glyph glyph-name="germandbls" unicode="&#xdf;" horiz-adv-x="1073" 
d="M111 0v1087q0 181 114 295q118 115 301 115q173 0 295 -96q119 -94 119 -266q0 -330 -356 -336v-8q208 1 318 -101.5t110 -275.5q0 -195 -127 -316q-124 -118 -330 -118q-106 0 -168 16v160q55 -19 150 -19q145 0 219.5 74.5t74.5 210.5q0 100 -22 159t-74 87
q-48 29 -103.5 39.5t-162.5 15.5v129q287 9 287 256q0 109 -58.5 170t-158.5 61q-123 0 -183.5 -65.5t-60.5 -220.5v-1053h-184z" />
    <glyph glyph-name="agrave" unicode="&#xe0;" horiz-adv-x="1105" 
d="M502 1499l176 -293h-131l-268 293h223zM991 711v-568q0 -80 17 -143h-185q-8 49 -8 236h-2q-25 -127 -121.5 -194t-249.5 -67q-93 0 -164 19.5t-112 49t-66.5 72t-34 81.5t-8.5 84q0 97 47 166.5t129 101.5q84 30 158 45q77 15 162 24q86 9 117 19q88 25 112.5 52
t24.5 89q0 74 -65 114t-183 40q-159 0 -209 -82q-19 -34 -24.5 -51.5t-10.5 -50.5h-184q11 97 39 151q94 184 385 184q109 0 195.5 -27.5t132.5 -68.5q46 -40 69 -96q39 -82 39 -180zM807 492v170q-13 -67 -77 -101.5t-216 -64.5q-147 -27 -206.5 -71.5t-59.5 -139.5
q0 -74 58 -120t157 -46q174 0 259 88t85 285z" />
    <glyph glyph-name="aacute" unicode="&#xe1;" horiz-adv-x="1105" 
d="M659 1499h224l-269 -293h-131zM991 711v-568q0 -80 17 -143h-185q-8 49 -8 236h-2q-25 -127 -121.5 -194t-249.5 -67q-93 0 -164 19.5t-112 49t-66.5 72t-34 81.5t-8.5 84q0 97 47 166.5t129 101.5q84 30 158 45q77 15 162 24q86 9 117 19q88 25 112.5 52t24.5 89
q0 74 -65 114t-183 40q-159 0 -209 -82q-19 -34 -24.5 -51.5t-10.5 -50.5h-184q11 97 39 151q94 184 385 184q109 0 195.5 -27.5t132.5 -68.5q46 -40 69 -96q39 -82 39 -180zM807 492v170q-13 -67 -77 -101.5t-216 -64.5q-147 -27 -206.5 -71.5t-59.5 -139.5q0 -74 58 -120
t157 -46q174 0 259 88t85 285z" />
    <glyph glyph-name="acircumflex" unicode="&#xe2;" horiz-adv-x="1105" 
d="M723 1206l-141 197l-144 -197h-157l211 293h190l213 -293h-172zM991 711v-568q0 -80 17 -143h-185q-8 49 -8 236h-2q-25 -127 -121.5 -194t-249.5 -67q-93 0 -164 19.5t-112 49t-66.5 72t-34 81.5t-8.5 84q0 97 47 166.5t129 101.5q84 30 158 45q77 15 162 24
q86 9 117 19q88 25 112.5 52t24.5 89q0 74 -65 114t-183 40q-159 0 -209 -82q-19 -34 -24.5 -51.5t-10.5 -50.5h-184q11 97 39 151q94 184 385 184q109 0 195.5 -27.5t132.5 -68.5q46 -40 69 -96q39 -82 39 -180zM807 492v170q-13 -67 -77 -101.5t-216 -64.5
q-147 -27 -206.5 -71.5t-59.5 -139.5q0 -74 58 -120t157 -46q174 0 259 88t85 285z" />
    <glyph glyph-name="atilde" unicode="&#xe3;" horiz-adv-x="1105" 
d="M379 1296q-20 -16 -37 -61h-106q46 225 217 225q56 0 149 -41q96 -41 135 -41q67 0 94 90h107q-12 -88 -66 -161q-54 -66 -141 -66q-63 0 -153 41q-101 39 -136 39q-38 0 -63 -25zM991 711v-568q0 -80 17 -143h-185q-8 49 -8 236h-2q-25 -127 -121.5 -194t-249.5 -67
q-93 0 -164 19.5t-112 49t-66.5 72t-34 81.5t-8.5 84q0 97 47 166.5t129 101.5q84 30 158 45q77 15 162 24q86 9 117 19q88 25 112.5 52t24.5 89q0 74 -65 114t-183 40q-159 0 -209 -82q-19 -34 -24.5 -51.5t-10.5 -50.5h-184q11 97 39 151q94 184 385 184
q109 0 195.5 -27.5t132.5 -68.5q46 -40 69 -96q39 -82 39 -180zM807 492v170q-13 -67 -77 -101.5t-216 -64.5q-147 -27 -206.5 -71.5t-59.5 -139.5q0 -74 58 -120t157 -46q174 0 259 88t85 285z" />
    <glyph glyph-name="adieresis" unicode="&#xe4;" horiz-adv-x="1105" 
d="M307 1462h185v-213h-185v213zM692 1462h185v-213h-185v213zM991 711v-568q0 -80 17 -143h-185q-8 49 -8 236h-2q-25 -127 -121.5 -194t-249.5 -67q-93 0 -164 19.5t-112 49t-66.5 72t-34 81.5t-8.5 84q0 97 47 166.5t129 101.5q84 30 158 45q77 15 162 24q86 9 117 19
q88 25 112.5 52t24.5 89q0 74 -65 114t-183 40q-159 0 -209 -82q-19 -34 -24.5 -51.5t-10.5 -50.5h-184q11 97 39 151q94 184 385 184q109 0 195.5 -27.5t132.5 -68.5q46 -40 69 -96q39 -82 39 -180zM807 492v170q-13 -67 -77 -101.5t-216 -64.5q-147 -27 -206.5 -71.5
t-59.5 -139.5q0 -74 58 -120t157 -46q174 0 259 88t85 285z" />
    <glyph glyph-name="aring" unicode="&#xe5;" horiz-adv-x="1105" 
d="M731 1221q-67 -67 -161.5 -67t-163.5 67q-68 67 -68 161t68 162q69 68 163.5 68t161.5 -68q69 -67 69 -161.5t-69 -161.5zM668 1479q-38 41 -98.5 41t-98.5 -41q-38 -38 -38 -98t38 -101q38 -38 98.5 -38t98.5 38q38 41 38 101t-38 98zM991 711v-568q0 -80 17 -143h-185
q-8 49 -8 236h-2q-25 -127 -121.5 -194t-249.5 -67q-93 0 -164 19.5t-112 49t-66.5 72t-34 81.5t-8.5 84q0 97 47 166.5t129 101.5q84 30 158 45q77 15 162 24q86 9 117 19q88 25 112.5 52t24.5 89q0 74 -65 114t-183 40q-159 0 -209 -82q-19 -34 -24.5 -51.5t-10.5 -50.5
h-184q11 97 39 151q94 184 385 184q109 0 195.5 -27.5t132.5 -68.5q46 -40 69 -96q39 -82 39 -180zM807 492v170q-13 -67 -77 -101.5t-216 -64.5q-147 -27 -206.5 -71.5t-59.5 -139.5q0 -74 58 -120t157 -46q174 0 259 88t85 285z" />
    <glyph glyph-name="ae" unicode="&#xe6;" horiz-adv-x="1802" 
d="M1278 129q103 0 173 53t95 152h178q-38 -172 -158 -265.5t-300 -93.5q-167 0 -273 75t-172 239l-10 -53q-26 -127 -122.5 -194t-246.5 -67q-93 0 -164 19.5t-112 49t-66.5 72t-34 81.5t-8.5 84q0 97 47 166.5t129 101.5q84 30 158 45q77 15 162 24q86 9 117 19
q48 14 74.5 27t38.5 32t14 34t2 48q0 154 -240 154q-158 0 -201 -82q-13 -24 -19.5 -41.5t-8.5 -26.5t-6 -34h-185v18q3 24 5.5 41t14 52.5t28 62t48.5 59t73 53t105 35t142 14.5q262 0 365 -145q121 145 340 145q477 0 477 -606h-776q0 -154 83.5 -251t233.5 -97zM1260 930
q-135 0 -217 -83.5t-82 -215.5h591q-5 134 -82.5 216.5t-209.5 82.5zM799 492v167q-12 -67 -72.5 -100t-212.5 -63q-147 -27 -206.5 -71.5t-59.5 -139.5q0 -74 58 -120t157 -46q173 0 254.5 87.5t81.5 285.5z" />
    <glyph glyph-name="ccedilla" unicode="&#xe7;" horiz-adv-x="1130" 
d="M903 344h178q-38 -187 -151 -275t-309 -94l-170 -129l4 -4q70 52 180 52q75 0 122.5 -39t47.5 -109q0 -88 -74.5 -132t-187.5 -44q-123 0 -209 45l72 82q45 -25 110 -25q53 0 94 19.5t41 50.5q0 32 -31 52t-79 20q-79 0 -138 -41l-36 67l149 140q-209 21 -328 167
q-118 145 -118 373q0 243 147 402q148 161 389 161q199 0 324 -94q126 -95 141 -250h-180q-52 193 -291 193q-168 0 -260 -121q-90 -122 -90 -291q0 -155 90 -274q88 -117 248 -117q136 0 213.5 51t101.5 164z" />
    <glyph glyph-name="egrave" unicode="&#xe8;" horiz-adv-x="1144" 
d="M522 1499l176 -293h-131l-268 293h223zM586 1083q110 0 199 -38.5t144 -101t91.5 -143.5t49.5 -162.5t9 -162.5h-837q27 -346 350 -346q114 0 190 53t99 154h180q-35 -172 -159 -266.5t-310 -94.5q-248 0 -387.5 150t-147.5 407q0 236 152 394q151 157 377 157zM248 631
h645q-8 131 -93 216t-214 85q-128 0 -220.5 -82.5t-117.5 -218.5z" />
    <glyph glyph-name="eacute" unicode="&#xe9;" horiz-adv-x="1144" 
d="M659 1499h224l-269 -293h-131zM586 1083q110 0 199 -38.5t144 -101t91.5 -143.5t49.5 -162.5t9 -162.5h-837q27 -346 350 -346q114 0 190 53t99 154h180q-35 -172 -159 -266.5t-310 -94.5q-248 0 -387.5 150t-147.5 407q0 236 152 394q151 157 377 157zM248 631h645
q-8 131 -93 216t-214 85q-128 0 -220.5 -82.5t-117.5 -218.5z" />
    <glyph glyph-name="ecircumflex" unicode="&#xea;" horiz-adv-x="1144" 
d="M723 1206l-141 197l-144 -197h-157l211 293h190l213 -293h-172zM586 1083q110 0 199 -38.5t144 -101t91.5 -143.5t49.5 -162.5t9 -162.5h-837q27 -346 350 -346q114 0 190 53t99 154h180q-35 -172 -159 -266.5t-310 -94.5q-248 0 -387.5 150t-147.5 407q0 236 152 394
q151 157 377 157zM248 631h645q-8 131 -93 216t-214 85q-128 0 -220.5 -82.5t-117.5 -218.5z" />
    <glyph glyph-name="edieresis" unicode="&#xeb;" horiz-adv-x="1144" 
d="M301 1446h184v-211h-184v211zM686 1446h184v-211h-184v211zM586 1083q110 0 199 -38.5t144 -101t91.5 -143.5t49.5 -162.5t9 -162.5h-837q27 -346 350 -346q114 0 190 53t99 154h180q-35 -172 -159 -266.5t-310 -94.5q-248 0 -387.5 150t-147.5 407q0 236 152 394
q151 157 377 157zM248 631h645q-8 131 -93 216t-214 85q-128 0 -220.5 -82.5t-117.5 -218.5z" />
    <glyph glyph-name="igrave" unicode="&#xec;" horiz-adv-x="411" 
d="M168 1206l-268 293h223l176 -293h-131zM125 0v1059h184v-1059h-184z" />
    <glyph glyph-name="iacute" unicode="&#xed;" horiz-adv-x="411" 
d="M113 1206l176 293h223l-268 -293h-131zM125 0v1059h184v-1059h-184z" />
    <glyph glyph-name="icircumflex" unicode="&#xee;" horiz-adv-x="409" 
d="M-102 1206l211 293h190l213 -293h-172l-141 197l-144 -197h-157zM125 0v1059h184v-1059h-184z" />
    <glyph glyph-name="idieresis" unicode="&#xef;" horiz-adv-x="409" 
d="M-80 1233v213h184v-213h-184zM305 1233v213h184v-213h-184zM125 0v1059h184v-1059h-184z" />
    <glyph glyph-name="eth" unicode="&#xf0;" horiz-adv-x="1175" 
d="M901 844h4q-47 110 -147 227q-99 116 -162 160l-236 -111l-77 82l223 105q-66 57 -164 96l164 94q111 -76 158 -115l245 115l72 -76l-236 -108q357 -295 357 -785q0 -241 -135 -397t-379 -156t-379 156t-135 397q0 212 129 359q131 149 354 149q240 0 344 -192zM258 528
q0 -182 93 -290.5t237 -108.5t237 108.5t93 290.5q0 160 -87.5 257.5t-252.5 97.5q-152 0 -236 -95.5t-84 -259.5z" />
    <glyph glyph-name="ntilde" unicode="&#xf1;" 
d="M371 1296q-20 -16 -37 -61h-107q47 225 217 225q57 0 150 -41q96 -41 135 -41q67 0 94 90h107q-12 -88 -66 -161q-54 -66 -141 -66q-64 0 -154 41q-101 39 -135 39q-38 0 -63 -25zM637 1083q197 0 300 -102.5t103 -284.5v-696h-184v678q0 135 -61 193.5t-183 58.5
q-159 0 -236 -87.5t-77 -281.5v-561h-184v1059h174v-230h4q36 125 127 189.5t217 64.5z" />
    <glyph glyph-name="ograve" unicode="&#xf2;" horiz-adv-x="1179" 
d="M526 1206l-268 293h223l176 -293h-131zM57 528q0 240 140 398q139 157 383 157t383 -157t139 -398q0 -240 -139 -397q-138 -156 -383 -156t-383 156q-140 158 -140 397zM918 528q0 187 -99 295q-95 109 -239 109q-142 0 -242 -109q-96 -110 -96 -295q0 -182 96 -292
q98 -107 242 -107q145 0 239 107q99 108 99 292z" />
    <glyph glyph-name="oacute" unicode="&#xf3;" horiz-adv-x="1179" 
d="M483 1206l176 293h224l-269 -293h-131zM57 528q0 240 140 398q139 157 383 157t383 -157t139 -398q0 -240 -139 -397q-138 -156 -383 -156t-383 156q-140 158 -140 397zM918 528q0 187 -99 295q-95 109 -239 109q-142 0 -242 -109q-96 -110 -96 -295q0 -182 96 -292
q98 -107 242 -107q145 0 239 107q99 108 99 292z" />
    <glyph glyph-name="ocircumflex" unicode="&#xf4;" horiz-adv-x="1179" 
d="M281 1206l211 293h190l213 -293h-172l-141 197l-144 -197h-157zM57 528q0 240 140 398q139 157 383 157t383 -157t139 -398q0 -240 -139 -397q-138 -156 -383 -156t-383 156q-140 158 -140 397zM918 528q0 187 -99 295q-95 109 -239 109q-142 0 -242 -109
q-96 -110 -96 -295q0 -182 96 -292q98 -107 242 -107q145 0 239 107q99 108 99 292z" />
    <glyph glyph-name="otilde" unicode="&#xf5;" horiz-adv-x="1179" 
d="M831 1468h107q-12 -88 -66 -161q-54 -66 -141 -66q-63 0 -153 41q-101 39 -136 39q-38 0 -63 -25q-20 -16 -37 -61h-106q46 225 217 225q56 0 149 -41q96 -41 135 -41q67 0 94 90zM57 528q0 240 140 398q139 157 383 157t383 -157t139 -398q0 -240 -139 -397
q-138 -156 -383 -156t-383 156q-140 158 -140 397zM918 528q0 187 -99 295q-95 109 -239 109q-142 0 -242 -109q-96 -110 -96 -295q0 -182 96 -292q98 -107 242 -107q145 0 239 107q99 108 99 292z" />
    <glyph glyph-name="odieresis" unicode="&#xf6;" horiz-adv-x="1179" 
d="M307 1249v213h185v-213h-185zM692 1249v213h185v-213h-185zM57 528q0 240 140 398q139 157 383 157t383 -157t139 -398q0 -240 -139 -397q-138 -156 -383 -156t-383 156q-140 158 -140 397zM918 528q0 187 -99 295q-95 109 -239 109q-142 0 -242 -109q-96 -110 -96 -295
q0 -182 96 -292q98 -107 242 -107q145 0 239 107q99 108 99 292z" />
    <glyph glyph-name="divide" unicode="&#xf7;" horiz-adv-x="1228" 
d="M745 940q0 -50 -39.5 -90.5t-89.5 -40.5q-40 -2 -73 22t-48.5 59t-9.5 75t37 67q27 31 67 37t75 -8.5t59 -47.5t22 -73zM98 449v139h1032v-139h-1032zM745 96q0 -50 -39.5 -90.5t-89.5 -40.5q-40 -2 -73 22t-48.5 59t-9.5 75t37 67q27 31 67 37t75 -8.5t59 -47.5t22 -73z
" />
    <glyph glyph-name="oslash" unicode="&#xf8;" 
d="M1094 1042l-117 -131q125 -149 125 -383q0 -240 -139 -397q-138 -156 -383 -156q-207 0 -342 117l-123 -137l-58 49l127 141q-127 151 -127 383q0 240 140 398q139 157 383 157q211 0 344 -118l116 131zM242 528q0 -144 63 -247l502 557q-94 94 -227 94q-142 0 -242 -109
q-96 -110 -96 -295zM580 129q145 0 239 107q99 108 99 292q0 144 -64 248l-500 -555q89 -92 226 -92z" />
    <glyph glyph-name="ugrave" unicode="&#xf9;" 
d="M483 1499l176 -293h-131l-268 293h223zM852 498v561h184v-1059h-174v229h-4q-36 -125 -127 -189.5t-217 -64.5q-197 0 -300 102.5t-103 284.5v697h184v-678q0 -135 61 -193.5t183 -58.5q159 0 236 87.5t77 281.5z" />
    <glyph glyph-name="uacute" unicode="&#xfa;" 
d="M649 1499h223l-268 -293h-131zM852 498v561h184v-1059h-174v229h-4q-36 -125 -127 -189.5t-217 -64.5q-197 0 -300 102.5t-103 284.5v697h184v-678q0 -135 61 -193.5t183 -58.5q159 0 236 87.5t77 281.5z" />
    <glyph glyph-name="ucircumflex" unicode="&#xfb;" 
d="M709 1206l-142 197l-143 -197h-158l211 293h191l213 -293h-172zM852 498v561h184v-1059h-174v229h-4q-36 -125 -127 -189.5t-217 -64.5q-197 0 -300 102.5t-103 284.5v697h184v-678q0 -135 61 -193.5t183 -58.5q159 0 236 87.5t77 281.5z" />
    <glyph glyph-name="udieresis" unicode="&#xfc;" 
d="M287 1446h184v-213h-184v213zM672 1446h184v-213h-184v213zM852 498v561h184v-1059h-174v229h-4q-36 -125 -127 -189.5t-217 -64.5q-197 0 -300 102.5t-103 284.5v697h184v-678q0 -135 61 -193.5t183 -58.5q159 0 236 87.5t77 281.5z" />
    <glyph glyph-name="yacute" unicode="&#xfd;" horiz-adv-x="1024" 
d="M629 1499h223l-268 -293h-131zM524 201l299 858h185l-459 -1264q-70 -205 -268 -205h-144v154h117q50 0 92.5 36.5t61.5 94.5l28 78l-420 1106h197z" />
    <glyph glyph-name="thorn" unicode="&#xfe;" horiz-adv-x="1214" 
d="M311 1462v-608h4q85 229 338 229q235 0 361 -159q127 -160 127 -398q0 -240 -125 -395q-126 -156 -359 -156q-109 0 -202 56t-140 172h-4v-609h-174v1868h174zM629 930q-165 0 -244 -117q-80 -118 -80 -283q0 -170 82 -286q83 -115 252 -115q165 0 242 117q75 118 75 293
q0 160 -84 276q-83 115 -243 115z" />
    <glyph glyph-name="ydieresis" unicode="&#xff;" horiz-adv-x="1024" 
d="M242 1446h184v-213h-184v213zM627 1446h184v-213h-184v213zM524 201l299 858h185l-459 -1264q-70 -205 -268 -205h-144v154h117q50 0 92.5 36.5t61.5 94.5l28 78l-420 1106h197z" />
    <glyph glyph-name="amacron" unicode="&#x101;" horiz-adv-x="1105" 
d="M231 1397h699v-113h-699v113zM991 711v-568q0 -80 17 -143h-185q-8 49 -8 236h-2q-25 -127 -121.5 -194t-249.5 -67q-93 0 -164 19.5t-112 49t-66.5 72t-34 81.5t-8.5 84q0 97 47 166.5t129 101.5q84 30 158 45q77 15 162 24q86 9 117 19q88 25 112.5 52t24.5 89
q0 74 -65 114t-183 40q-159 0 -209 -82q-19 -34 -24.5 -51.5t-10.5 -50.5h-184q11 97 39 151q94 184 385 184q109 0 195.5 -27.5t132.5 -68.5q46 -40 69 -96q39 -82 39 -180zM807 492v170q-13 -67 -77 -101.5t-216 -64.5q-147 -27 -206.5 -71.5t-59.5 -139.5q0 -74 58 -120
t157 -46q174 0 259 88t85 285z" />
    <glyph glyph-name="Abreve" unicode="&#x102;" horiz-adv-x="1333" 
d="M657 1599q-274 0 -315 283h102q50 -170 230 -170q79 0 122.5 39t80.5 131h104q-23 -134 -107 -208.5t-217 -74.5zM1350 0h-220l-172 467h-596l-174 -467h-204l575 1462h215zM666 1303h-4l-244 -680h489z" />
    <glyph glyph-name="abreve" unicode="&#x103;" horiz-adv-x="1105" 
d="M582 1210q-275 0 -316 283h103q50 -170 229 -170q79 0 122.5 39t80.5 131h104q-23 -135 -107 -209t-216 -74zM991 711v-568q0 -80 17 -143h-185q-8 49 -8 236h-2q-25 -127 -121.5 -194t-249.5 -67q-93 0 -164 19.5t-112 49t-66.5 72t-34 81.5t-8.5 84q0 97 47 166.5
t129 101.5q84 30 158 45q77 15 162 24q86 9 117 19q88 25 112.5 52t24.5 89q0 74 -65 114t-183 40q-159 0 -209 -82q-19 -34 -24.5 -51.5t-10.5 -50.5h-184q11 97 39 151q94 184 385 184q109 0 195.5 -27.5t132.5 -68.5q46 -40 69 -96q39 -82 39 -180zM807 492v170
q-13 -67 -77 -101.5t-216 -64.5q-147 -27 -206.5 -71.5t-59.5 -139.5q0 -74 58 -120t157 -46q174 0 259 88t85 285z" />
    <glyph glyph-name="Aogonek" unicode="&#x104;" horiz-adv-x="1333" 
d="M1116 -328q77 0 127 62l66 -37q-74 -127 -222 -127q-188 0 -188 168q0 19 16 59q20 42 78 100t137 103l-172 467h-596l-174 -467h-204l575 1462h215l576 -1462h-140q-172 -147 -172 -242q0 -37 20.5 -61.5t57.5 -24.5zM666 1303h-4l-244 -680h489z" />
    <glyph glyph-name="aogonek" unicode="&#x105;" horiz-adv-x="1105" 
d="M971 -266l65 -37q-74 -127 -221 -127q-80 0 -134 42.5t-54 123.5q0 94 78 172q65 65 159 92h-41q-8 49 -8 236h-2q-25 -127 -121.5 -194t-249.5 -67q-93 0 -164 19.5t-112 49t-66.5 72t-34 81.5t-8.5 84q0 97 47 166.5t129 101.5q84 30 158 45q77 15 162 24q86 9 117 19
q88 25 112.5 52t24.5 89q0 74 -65 114t-183 40q-159 0 -209 -82q-19 -34 -24.5 -51.5t-10.5 -50.5h-184q11 97 39 151q94 184 385 184q109 0 195.5 -27.5t132.5 -68.5q46 -40 69 -96q39 -82 39 -180v-568q0 -80 17 -143h-29q-105 -26 -174 -117q-59 -77 -47 -143
q12 -68 86 -68q77 0 127 62zM807 492v170q-13 -67 -77 -101.5t-216 -64.5q-147 -27 -206.5 -71.5t-59.5 -139.5q0 -74 58 -120t157 -46q174 0 259 88t85 285z" />
    <glyph glyph-name="Cacute" unicode="&#x106;" horiz-adv-x="1513" 
d="M737 1595l176 293h224l-269 -293h-131zM1413 1040h-194q-26 144 -135 218.5t-275 74.5q-250 0 -393 -174q-144 -176 -144 -418q0 -262 144 -438q143 -174 399 -174q184 0 295 91t131 263h195q-29 -260 -193 -389t-444 -129q-333 0 -527 215q-194 218 -194 547
q0 327 201 549q203 221 532 221q242 0 410 -115q168 -113 192 -342z" />
    <glyph glyph-name="cacute" unicode="&#x107;" horiz-adv-x="1130" 
d="M502 1206l176 293h223l-268 -293h-131zM1071 739h-180q-52 193 -291 193q-168 0 -260 -121q-90 -122 -90 -291q0 -155 90 -274q88 -117 248 -117q136 0 213.5 51t101.5 164h178q-41 -195 -161.5 -282t-335.5 -87q-239 0 -377 150q-137 149 -137 395q0 243 147 402
q148 161 389 161q199 0 324 -94q126 -95 141 -250z" />
    <glyph glyph-name="Ccircumflex" unicode="&#x108;" horiz-adv-x="1513" 
d="M512 1595l211 293h190l213 -293h-172l-141 197l-143 -197h-158zM1413 1040h-194q-26 144 -135 218.5t-275 74.5q-250 0 -393 -174q-144 -176 -144 -418q0 -262 144 -438q143 -174 399 -174q184 0 295 91t131 263h195q-29 -260 -193 -389t-444 -129q-333 0 -527 215
q-194 218 -194 547q0 327 201 549q203 221 532 221q242 0 410 -115q168 -113 192 -342z" />
    <glyph glyph-name="ccircumflex" unicode="&#x109;" horiz-adv-x="1130" 
d="M281 1206l211 293h190l213 -293h-172l-141 197l-144 -197h-157zM1071 739h-180q-52 193 -291 193q-168 0 -260 -121q-90 -122 -90 -291q0 -155 90 -274q88 -117 248 -117q136 0 213.5 51t101.5 164h178q-41 -195 -161.5 -282t-335.5 -87q-239 0 -377 150
q-137 149 -137 395q0 243 147 402q148 161 389 161q199 0 324 -94q126 -95 141 -250z" />
    <glyph glyph-name="Cdotaccent" unicode="&#x10a;" horiz-adv-x="1513" 
d="M893 1839v-213h-184v213h184zM1413 1040h-194q-26 144 -135 218.5t-275 74.5q-250 0 -393 -174q-144 -176 -144 -418q0 -262 144 -438q143 -174 399 -174q184 0 295 91t131 263h195q-29 -260 -193 -389t-444 -129q-333 0 -527 215q-194 218 -194 547q0 327 201 549
q203 221 532 221q242 0 410 -115q168 -113 192 -342z" />
    <glyph glyph-name="cdotaccent" unicode="&#x10b;" horiz-adv-x="1130" 
d="M688 1454v-213h-184v213h184zM1071 739h-180q-52 193 -291 193q-168 0 -260 -121q-90 -122 -90 -291q0 -155 90 -274q88 -117 248 -117q136 0 213.5 51t101.5 164h178q-41 -195 -161.5 -282t-335.5 -87q-239 0 -377 150q-137 149 -137 395q0 243 147 402q148 161 389 161
q199 0 324 -94q126 -95 141 -250z" />
    <glyph glyph-name="Ccaron" unicode="&#x10c;" horiz-adv-x="1513" 
d="M1108 1888l-211 -293h-190l-213 293h172l141 -196l143 196h158zM1413 1040h-194q-26 144 -135 218.5t-275 74.5q-250 0 -393 -174q-144 -176 -144 -418q0 -262 144 -438q143 -174 399 -174q184 0 295 91t131 263h195q-29 -260 -193 -389t-444 -129q-333 0 -527 215
q-194 218 -194 547q0 327 201 549q203 221 532 221q242 0 410 -115q168 -113 192 -342z" />
    <glyph glyph-name="ccaron" unicode="&#x10d;" horiz-adv-x="1130" 
d="M889 1499l-211 -293h-191l-213 293h172l142 -196l143 196h158zM1071 739h-180q-52 193 -291 193q-168 0 -260 -121q-90 -122 -90 -291q0 -155 90 -274q88 -117 248 -117q136 0 213.5 51t101.5 164h178q-41 -195 -161.5 -282t-335.5 -87q-239 0 -377 150
q-137 149 -137 395q0 243 147 402q148 161 389 161q199 0 324 -94q126 -95 141 -250z" />
    <glyph glyph-name="Dcaron" unicode="&#x10e;" horiz-adv-x="1429" 
d="M944 1888l-211 -293h-190l-213 293h172l141 -196l143 196h158zM147 1462h502q326 0 514 -182q189 -183 189 -514q0 -369 -176.5 -567.5t-526.5 -198.5h-502v1462zM342 164h324q59 0 110.5 10.5t118.5 42.5q74 34 129.5 94.5t93 170.5t39.5 257q0 264 -123.5 411.5
t-363.5 147.5h-328v-1134z" />
    <glyph glyph-name="dcaron" unicode="&#x10f;" horiz-adv-x="1275" 
d="M881 848h8l-4 614h184v-1462h-178v203h-4q-102 -228 -342 -228q-233 0 -359 156q-125 155 -125 395q0 242 123 398q126 159 359 159q123 0 216.5 -61.5t121.5 -173.5zM1171 1169l54 293h223l-154 -293h-123zM567 129q173 0 246 119q76 119 76 297v14q-5 168 -88 267.5
t-230 99.5q-159 0 -241 -113q-80 -112 -80 -274q0 -174 76 -293q76 -117 241 -117z" />
    <glyph glyph-name="Dcroat" unicode="&#x110;" horiz-adv-x="1429" 
d="M147 1462h502q326 0 514 -182q189 -183 189 -514q0 -369 -176.5 -567.5t-526.5 -198.5h-502v694h-131v140h131v628zM342 164h324q59 0 110.5 10.5t118.5 42.5q74 34 129.5 94.5t93 170.5t39.5 257q0 264 -123.5 411.5t-363.5 147.5h-328v-464h451v-140h-451v-530z" />
    <glyph glyph-name="dslash" unicode="&#x111;" horiz-adv-x="1175" 
d="M1069 1309h176v-115h-176v-1194h-178v203h-4q-102 -228 -342 -228q-233 0 -359 156q-125 155 -125 395q0 242 123 398q126 159 359 159q123 0 216.5 -61.5t121.5 -173.5h8l-2 346h-340v115h338v153h184v-153zM567 129q173 0 246 119q76 119 76 297v14q-5 168 -88 267.5
t-230 99.5q-159 0 -241 -113q-80 -112 -80 -274q0 -174 76 -293q76 -117 241 -117z" />
    <glyph glyph-name="Emacron" unicode="&#x112;" horiz-adv-x="1257" 
d="M315 1786h699v-113h-699v113zM346 670v-506h821v-164h-1015v1462h1009v-164h-815v-464h772v-164h-772z" />
    <glyph glyph-name="emacron" unicode="&#x113;" horiz-adv-x="1144" 
d="M246 1397h698v-113h-698v113zM586 1083q110 0 199 -38.5t144 -101t91.5 -143.5t49.5 -162.5t9 -162.5h-837q27 -346 350 -346q114 0 190 53t99 154h180q-35 -172 -159 -266.5t-310 -94.5q-248 0 -387.5 150t-147.5 407q0 236 152 394q151 157 377 157zM248 631h645
q-8 131 -93 216t-214 85q-128 0 -220.5 -82.5t-117.5 -218.5z" />
    <glyph glyph-name="Ebreve" unicode="&#x114;" horiz-adv-x="1257" 
d="M641 1599q-274 0 -315 283h102q50 -170 229 -170q79 0 122.5 39t80.5 131h105q-23 -134 -107 -208.5t-217 -74.5zM346 670v-506h821v-164h-1015v1462h1009v-164h-815v-464h772v-164h-772z" />
    <glyph glyph-name="ebreve" unicode="&#x115;" horiz-adv-x="1144" 
d="M586 1210q-275 0 -316 283h103q50 -170 229 -170q79 0 122.5 39t80.5 131h104q-23 -135 -107 -209t-216 -74zM586 1083q110 0 199 -38.5t144 -101t91.5 -143.5t49.5 -162.5t9 -162.5h-837q27 -346 350 -346q114 0 190 53t99 154h180q-35 -172 -159 -266.5t-310 -94.5
q-248 0 -387.5 150t-147.5 407q0 236 152 394q151 157 377 157zM248 631h645q-8 131 -93 216t-214 85q-128 0 -220.5 -82.5t-117.5 -218.5z" />
    <glyph glyph-name="Edotaccent" unicode="&#x116;" horiz-adv-x="1257" 
d="M565 1839h185v-213h-185v213zM346 670v-506h821v-164h-1015v1462h1009v-164h-815v-464h772v-164h-772z" />
    <glyph glyph-name="edotaccent" unicode="&#x117;" horiz-adv-x="1144" 
d="M498 1450h184v-213h-184v213zM586 1083q110 0 199 -38.5t144 -101t91.5 -143.5t49.5 -162.5t9 -162.5h-837q27 -346 350 -346q114 0 190 53t99 154h180q-35 -172 -159 -266.5t-310 -94.5q-248 0 -387.5 150t-147.5 407q0 236 152 394q151 157 377 157zM248 631h645
q-8 131 -93 216t-214 85q-128 0 -220.5 -82.5t-117.5 -218.5z" />
    <glyph glyph-name="Eogonek" unicode="&#x118;" horiz-adv-x="1257" 
d="M1167 0h-102q-168 -143 -168 -242q0 -37 20.5 -61.5t57.5 -24.5q77 0 127 62l65 -37q-74 -127 -221 -127q-188 0 -188 168q0 24 14 59q15 40 72 98.5t137 104.5h-829v1462h1009v-164h-815v-464h772v-164h-772v-506h821v-164z" />
    <glyph glyph-name="eogonek" unicode="&#x119;" horiz-adv-x="1144" 
d="M586 1083q110 0 199 -38.5t144 -101t91.5 -143.5t49.5 -162.5t9 -162.5h-837q27 -346 350 -346q114 0 190 53t99 154h180q-30 -156 -138 -248.5t-270 -110.5l-55 -55q-86 -86 -86 -164q0 -37 20.5 -61.5t57.5 -24.5q77 0 127 62l65 -37q-74 -127 -221 -127
q-188 0 -188 168q0 75 108 180q21 21 76 57q-231 12 -361.5 161.5t-138.5 395.5q0 236 152 394q151 157 377 157zM248 631h645q-8 131 -93 216t-214 85q-128 0 -220.5 -82.5t-117.5 -218.5z" />
    <glyph glyph-name="Ecaron" unicode="&#x11a;" horiz-adv-x="1257" 
d="M961 1888l-211 -293h-191l-213 293h172l141 -196l144 196h158zM346 670v-506h821v-164h-1015v1462h1009v-164h-815v-464h772v-164h-772z" />
    <glyph glyph-name="ecaron" unicode="&#x11b;" horiz-adv-x="1144" 
d="M889 1499l-211 -293h-191l-213 293h172l142 -196l143 196h158zM586 1083q110 0 199 -38.5t144 -101t91.5 -143.5t49.5 -162.5t9 -162.5h-837q27 -346 350 -346q114 0 190 53t99 154h180q-35 -172 -159 -266.5t-310 -94.5q-248 0 -387.5 150t-147.5 407q0 236 152 394
q151 157 377 157zM248 631h645q-8 131 -93 216t-214 85q-128 0 -220.5 -82.5t-117.5 -218.5z" />
    <glyph glyph-name="Gcircumflex" unicode="&#x11c;" horiz-adv-x="1550" 
d="M950 1595l-141 197l-143 -197h-158l211 293h190l213 -293h-172zM838 586v164h610l-18 -750h-119l-33 274q-71 -201 -221 -262q-66 -28 -121.5 -37.5t-132.5 -9.5q-321 0 -514 217q-191 218 -191 520q0 336 183 566q180 229 514 229q259 0 419 -122t189 -363h-195
q-20 161 -127.5 241t-285.5 80q-249 0 -375 -182q-127 -183 -127 -438q0 -243 133 -414q135 -170 377 -170q224 0 346 125q124 127 115 332h-426z" />
    <glyph glyph-name="gcircumflex" unicode="&#x11d;" horiz-adv-x="1189" 
d="M739 1206l-141 197l-143 -197h-158l211 293h190l213 -293h-172zM891 856v203h184v-1030q0 -232 -118.5 -345.5t-383.5 -113.5q-115 -3 -212 27.5t-163.5 103.5t-72.5 180h184q6 -81 79 -119t185 -38q178 0 248 68.5t70 236.5v202h-4q-25 -118 -121 -187t-217 -69
q-234 0 -361 160t-127 397q0 239 125 394q127 157 359 157q240 0 342 -227h4zM567 141q85 1 151 39.5t103 101t53 137.5t9 154q0 43 -9 88.5t-31.5 94.5t-55.5 87t-86 62.5t-119 24.5q-153 0 -235.5 -106.5t-82.5 -278.5q0 -162 72 -285q73 -119 231 -119z" />
    <glyph glyph-name="Gbreve" unicode="&#x11e;" horiz-adv-x="1550" 
d="M786 1599q-274 0 -315 283h102q50 -170 230 -170q79 0 122.5 39t80.5 131h104q-23 -134 -107 -208.5t-217 -74.5zM838 586v164h610l-18 -750h-119l-33 274q-71 -201 -221 -262q-66 -28 -121.5 -37.5t-132.5 -9.5q-321 0 -514 217q-191 218 -191 520q0 336 183 566
q180 229 514 229q259 0 419 -122t189 -363h-195q-20 161 -127.5 241t-285.5 80q-249 0 -375 -182q-127 -183 -127 -438q0 -243 133 -414q135 -170 377 -170q224 0 346 125q124 127 115 332h-426z" />
    <glyph glyph-name="gbreve" unicode="&#x11f;" horiz-adv-x="1189" 
d="M578 1210q-275 0 -316 283h103q50 -170 229 -170q79 0 122.5 39t80.5 131h104q-23 -135 -107 -209t-216 -74zM891 856v203h184v-1030q0 -232 -118.5 -345.5t-383.5 -113.5q-115 -3 -212 27.5t-163.5 103.5t-72.5 180h184q6 -81 79 -119t185 -38q178 0 248 68.5t70 236.5
v202h-4q-25 -118 -121 -187t-217 -69q-234 0 -361 160t-127 397q0 239 125 394q127 157 359 157q240 0 342 -227h4zM567 141q85 1 151 39.5t103 101t53 137.5t9 154q0 43 -9 88.5t-31.5 94.5t-55.5 87t-86 62.5t-119 24.5q-153 0 -235.5 -106.5t-82.5 -278.5q0 -162 72 -285
q73 -119 231 -119z" />
    <glyph glyph-name="Gdotaccent" unicode="&#x120;" horiz-adv-x="1550" 
d="M705 1839h184v-213h-184v213zM838 586v164h610l-18 -750h-119l-33 274q-71 -201 -221 -262q-66 -28 -121.5 -37.5t-132.5 -9.5q-321 0 -514 217q-191 218 -191 520q0 336 183 566q180 229 514 229q259 0 419 -122t189 -363h-195q-20 161 -127.5 241t-285.5 80
q-249 0 -375 -182q-127 -183 -127 -438q0 -243 133 -414q135 -170 377 -170q224 0 346 125q124 127 115 332h-426z" />
    <glyph glyph-name="gdotaccent" unicode="&#x121;" horiz-adv-x="1189" 
d="M492 1450h184v-213h-184v213zM891 856v203h184v-1030q0 -232 -118.5 -345.5t-383.5 -113.5q-115 -3 -212 27.5t-163.5 103.5t-72.5 180h184q6 -81 79 -119t185 -38q178 0 248 68.5t70 236.5v202h-4q-25 -118 -121 -187t-217 -69q-234 0 -361 160t-127 397q0 239 125 394
q127 157 359 157q240 0 342 -227h4zM567 141q85 1 151 39.5t103 101t53 137.5t9 154q0 43 -9 88.5t-31.5 94.5t-55.5 87t-86 62.5t-119 24.5q-153 0 -235.5 -106.5t-82.5 -278.5q0 -162 72 -285q73 -119 231 -119z" />
    <glyph glyph-name="Gcommaaccent" unicode="&#x122;" horiz-adv-x="1550" 
d="M838 586v164h610l-18 -750h-119l-33 274q-71 -201 -221 -262q-66 -28 -121.5 -37.5t-132.5 -9.5q-321 0 -514 217q-191 218 -191 520q0 336 183 566q180 229 514 229q259 0 419 -122t189 -363h-195q-20 161 -127.5 241t-285.5 80q-249 0 -375 -182q-127 -183 -127 -438
q0 -243 133 -414q135 -170 377 -170q224 0 346 125q124 127 115 332h-426zM774 -283h-106v181h227v-158q0 -83 -53.5 -126.5t-149.5 -43.5v72q57 20 70.5 34.5t11.5 40.5z" />
    <glyph glyph-name="gcommaaccent" unicode="&#x123;" horiz-adv-x="1189" 
d="M588 1462h106v-180h-227v158q0 83 53.5 126.5t149.5 43.5v-72q-57 -20 -70.5 -35t-11.5 -41zM891 856v203h184v-1030q0 -232 -118.5 -345.5t-383.5 -113.5q-115 -3 -212 27.5t-163.5 103.5t-72.5 180h184q6 -81 79 -119t185 -38q178 0 248 68.5t70 236.5v202h-4
q-25 -118 -121 -187t-217 -69q-234 0 -361 160t-127 397q0 239 125 394q127 157 359 157q240 0 342 -227h4zM567 141q85 1 151 39.5t103 101t53 137.5t9 154q0 43 -9 88.5t-31.5 94.5t-55.5 87t-86 62.5t-119 24.5q-153 0 -235.5 -106.5t-82.5 -278.5q0 -162 72 -285
q73 -119 231 -119z" />
    <glyph glyph-name="Hcircumflex" unicode="&#x124;" horiz-adv-x="1482" 
d="M862 1595l-141 197l-143 -197h-158l211 293h190l213 -293h-172zM1137 815v647h194v-1462h-194v651h-791v-651h-194v1462h194v-647h791z" />
    <glyph glyph-name="hcircumflex" unicode="&#x125;" horiz-adv-x="1153" 
d="M664 1595l-142 197l-143 -197h-158l211 293h191l213 -293h-172zM637 1083q199 0 302 -102.5t103 -284.5v-696h-184v678q0 135 -61.5 193.5t-184.5 58.5q-138 0 -219.5 -70.5t-93.5 -208.5v-651h-184v1462h180v-622q37 119 128 181t214 62z" />
    <glyph glyph-name="Hbar" unicode="&#x126;" horiz-adv-x="1482" 
d="M1137 1057v405h194v-1462h-194v651h-791v-651h-194v1462h194v-405h791zM346 946v-131h791v131h-791z" />
    <glyph glyph-name="hbar" unicode="&#x127;" horiz-adv-x="1153" 
d="M637 1083q199 0 302 -102.5t103 -284.5v-696h-184v678q0 135 -61.5 193.5t-184.5 58.5q-138 0 -219.5 -70.5t-93.5 -208.5v-651h-184v1194h-144v115h144v153h180v-153h309v-115h-309v-354q37 119 128 181t214 62z" />
    <glyph glyph-name="Itilde" unicode="&#x128;" horiz-adv-x="522" 
d="M512 1858h106q-12 -91 -65 -162q-54 -66 -141 -66q-64 0 -154 41q-101 39 -135 39q-40 0 -64 -24q-18 -15 -36 -62h-107q46 225 217 225q57 0 150 -41q96 -41 135 -41q66 0 94 91zM164 0v1462h194v-1462h-194z" />
    <glyph glyph-name="itilde" unicode="&#x129;" horiz-adv-x="411" 
d="M451 1468h106q-12 -90 -65 -161q-54 -66 -142 -66q-63 0 -153 41q-101 39 -136 39q-38 0 -63 -25q-20 -16 -37 -61h-106q47 225 217 225q56 0 149 -41q96 -41 135 -41q68 0 95 90zM125 0v1059h184v-1059h-184z" />
    <glyph glyph-name="Imacron" unicode="&#x12a;" horiz-adv-x="522" 
d="M-88 1673v113h698v-113h-698zM164 0v1462h194v-1462h-194z" />
    <glyph glyph-name="imacron" unicode="&#x12b;" horiz-adv-x="436" 
d="M-131 1284v113h698v-113h-698zM125 0v1059h184v-1059h-184z" />
    <glyph glyph-name="Iogonek" unicode="&#x12e;" horiz-adv-x="522" 
d="M389 -266l57 -37q-71 -127 -186 -127q-182 0 -182 168q0 26 12 61q14 38 67 96t128 105h-121v1462h194v-1462q-97 -91 -125 -137q-28 -54 -28 -105q0 -39 18.5 -62.5t50.5 -23.5q65 0 115 62z" />
    <glyph glyph-name="iogonek" unicode="&#x12f;" horiz-adv-x="411" 
d="M123 1462h188v-213h-188v213zM315 -266l58 -37q-65 -127 -199 -127q-170 0 -170 168q0 24 12 59q14 38 67 97t128 106h-86v1059h184v-1059h-24q-89 -84 -121.5 -137t-32.5 -105q0 -37 18 -61.5t52 -24.5q70 0 114 62z" />
    <glyph glyph-name="Idot" unicode="&#x130;" horiz-adv-x="522" 
d="M354 1839v-213h-184v213h184zM164 0v1462h194v-1462h-194z" />
    <glyph glyph-name="dotlessi" unicode="&#x131;" horiz-adv-x="411" 
d="M125 0v1059h184v-1059h-184z" />
    <glyph glyph-name="Jcircumflex" unicode="&#x134;" horiz-adv-x="1050" 
d="M502 1595l211 293h190l213 -293h-172l-141 197l-144 -197h-157zM907 1462v-1097q0 -168 -102 -285q-103 -115 -330 -115q-205 0 -315.5 110t-110.5 316v49h191v-20q0 -146 55 -218.5t184 -72.5q124 0 179 65.5t55 198.5v1069h194z" />
    <glyph glyph-name="jcircumflex" unicode="&#x135;" horiz-adv-x="466" 
d="M-53 1206l211 293h190l213 -293h-172l-141 197l-144 -197h-157zM344 1059v-1260q0 -202 -194 -202h-187v153h103q94 0 94 68v1241h184z" />
    <glyph glyph-name="Kcommaaccent" unicode="&#x136;" horiz-adv-x="1363" 
d="M1339 1462l-614 -588l639 -874h-246l-526 741l-246 -229v-512h-194v1462h194v-729l741 729h252zM684 -283h-106v181h227v-158q0 -83 -53.5 -126.5t-149.5 -43.5v72q57 20 70.5 34.5t11.5 40.5z" />
    <glyph glyph-name="kcommaaccent" unicode="&#x137;" horiz-adv-x="1044" 
d="M1026 1059l-438 -389l481 -670h-221l-393 553l-160 -141v-412h-184v1462h184v-846l491 443h240zM530 -283h-106v181h227v-158q0 -83 -53.5 -126.5t-148.5 -43.5v72q57 20 70 34.5t11 40.5z" />
    <glyph glyph-name="Lacute" unicode="&#x139;" horiz-adv-x="1136" 
d="M358 1888h224l-269 -293h-131zM346 1462v-1298h774v-164h-968v1462h194z" />
    <glyph glyph-name="lacute" unicode="&#x13a;" horiz-adv-x="430" 
d="M113 1595l176 293h223l-268 -293h-131zM123 0v1462h184v-1462h-184z" />
    <glyph glyph-name="Lcommaaccent" unicode="&#x13b;" horiz-adv-x="1136" 
d="M346 1462v-1298h774v-164h-968v1462h194zM596 -283h-107v181h228v-158q0 -83 -53.5 -126.5t-149.5 -43.5v72q57 20 70.5 34.5t11.5 40.5z" />
    <glyph glyph-name="lcommaaccent" unicode="&#x13c;" horiz-adv-x="430" 
d="M123 0v1462h184v-1462h-184zM102 -283v181h228v-158q0 -83 -53.5 -126.5t-149.5 -43.5v72q57 20 70.5 34.5t11.5 40.5h-107z" />
    <glyph glyph-name="Lcaron" unicode="&#x13d;" horiz-adv-x="1136" 
d="M346 1462v-1298h774v-164h-968v1462h194zM618 1462h224l-154 -293h-123z" />
    <glyph glyph-name="lcaron" unicode="&#x13e;" horiz-adv-x="430" 
d="M123 0v1462h184v-1462h-184zM391 1169l53 293h224l-154 -293h-123z" />
    <glyph glyph-name="Ldot" unicode="&#x13f;" horiz-adv-x="1136" 
d="M346 1462v-1298h774v-164h-968v1462h194zM625 1059h184v-213h-184v213z" />
    <glyph glyph-name="ldot" unicode="&#x140;" horiz-adv-x="430" 
d="M123 0v1462h184v-1462h-184zM604 1059v-213h-184v213h184z" />
    <glyph glyph-name="Lslash" unicode="&#x141;" horiz-adv-x="1130" 
d="M346 627v-463h774v-164h-968v489l-160 -112v155l160 113v817h194v-680l469 332v-156z" />
    <glyph glyph-name="lslash" unicode="&#x142;" horiz-adv-x="430" 
d="M446 1059l3 -148l-142 -112v-799h-184v653l-135 -108v145l135 109v663h184v-516z" />
    <glyph glyph-name="Nacute" unicode="&#x143;" horiz-adv-x="1501" 
d="M829 1888h224l-269 -293h-131zM1165 276v1186h185v-1462h-213l-797 1174h-4v-1174h-184v1462h206l803 -1186h4z" />
    <glyph glyph-name="nacute" unicode="&#x144;" 
d="M684 1499h223l-268 -293h-131zM637 1083q197 0 300 -102.5t103 -284.5v-696h-184v678q0 135 -61 193.5t-183 58.5q-159 0 -236 -87.5t-77 -281.5v-561h-184v1059h174v-230h4q36 125 127 189.5t217 64.5z" />
    <glyph glyph-name="Ncommaaccent" unicode="&#x145;" horiz-adv-x="1501" 
d="M1165 276v1186h185v-1462h-213l-797 1174h-4v-1174h-184v1462h206l803 -1186h4zM737 -283h-106v181h227v-158q0 -83 -53.5 -126.5t-149.5 -43.5v72q57 20 70.5 34.5t11.5 40.5z" />
    <glyph glyph-name="ncommaaccent" unicode="&#x146;" 
d="M637 1083q197 0 300 -102.5t103 -284.5v-696h-184v678q0 135 -61 193.5t-183 58.5q-159 0 -236 -87.5t-77 -281.5v-561h-184v1059h174v-230h4q36 125 127 189.5t217 64.5zM571 -283h-106v181h227v-158q0 -83 -53.5 -126.5t-149.5 -43.5v72q57 20 70.5 34.5t11.5 40.5z
" />
    <glyph glyph-name="Ncaron" unicode="&#x147;" horiz-adv-x="1501" 
d="M1055 1888l-211 -293h-191l-213 293h172l142 -196l143 196h158zM1165 276v1186h185v-1462h-213l-797 1174h-4v-1174h-184v1462h206l803 -1186h4z" />
    <glyph glyph-name="ncaron" unicode="&#x148;" 
d="M891 1499l-211 -293h-191l-213 293h173l141 -196l143 196h158zM637 1083q197 0 300 -102.5t103 -284.5v-696h-184v678q0 135 -61 193.5t-183 58.5q-159 0 -236 -87.5t-77 -281.5v-561h-184v1059h174v-230h4q36 125 127 189.5t217 64.5z" />
    <glyph glyph-name="Omacron" unicode="&#x14c;" horiz-adv-x="1613" 
d="M461 1673v113h698v-113h-698zM410 1386q170 111 397 111q225 0 395 -111q170 -108 252 -280q82 -168 82 -375q0 -209 -84 -379t-250 -278q-171 -109 -395 -109q-226 0 -397 109q-167 109 -250 280q-82 171 -82 377q0 208 84 378t248 277zM508 219q128 -90 299 -90t299 90
q123 89 180 225q56 135 57.5 285t-59.5 289t-178 223q-127 92 -299 92t-299 -92q-122 -86 -180 -223q-57 -135 -58.5 -285t60 -289t178.5 -225z" />
    <glyph glyph-name="omacron" unicode="&#x14d;" horiz-adv-x="1179" 
d="M244 1284v113h698v-113h-698zM57 528q0 240 140 398q139 157 383 157t383 -157t139 -398q0 -240 -139 -397q-138 -156 -383 -156t-383 156q-140 158 -140 397zM918 528q0 187 -99 295q-95 109 -239 109q-142 0 -242 -109q-96 -110 -96 -295q0 -182 96 -292
q98 -107 242 -107q145 0 239 107q99 108 99 292z" />
    <glyph glyph-name="Obreve" unicode="&#x14e;" horiz-adv-x="1613" 
d="M489 1882h103q50 -170 229 -170q79 0 122.5 39t80.5 131h104q-23 -135 -107 -209t-216 -74q-275 0 -316 283zM410 1386q170 111 397 111q225 0 395 -111q170 -108 252 -280q82 -168 82 -375q0 -209 -84 -379t-250 -278q-171 -109 -395 -109q-226 0 -397 109
q-167 109 -250 280q-82 171 -82 377q0 208 84 378t248 277zM508 219q128 -90 299 -90t299 90q123 89 180 225q56 135 57.5 285t-59.5 289t-178 223q-127 92 -299 92t-299 -92q-122 -86 -180 -223q-57 -135 -58.5 -285t60 -289t178.5 -225z" />
    <glyph glyph-name="obreve" unicode="&#x14f;" horiz-adv-x="1179" 
d="M266 1493h103q50 -170 229 -170q79 0 122.5 39t80.5 131h104q-23 -135 -107 -209t-216 -74q-275 0 -316 283zM57 528q0 240 140 398q139 157 383 157t383 -157t139 -398q0 -240 -139 -397q-138 -156 -383 -156t-383 156q-140 158 -140 397zM918 528q0 187 -99 295
q-95 109 -239 109q-142 0 -242 -109q-96 -110 -96 -295q0 -182 96 -292q98 -107 242 -107q145 0 239 107q99 108 99 292z" />
    <glyph glyph-name="Ohungarumlaut" unicode="&#x150;" horiz-adv-x="1613" 
d="M578 1595l165 293h215l-245 -293h-135zM897 1595l166 293h215l-246 -293h-135zM410 1386q170 111 397 111q225 0 395 -111q170 -108 252 -280q82 -168 82 -375q0 -209 -84 -379t-250 -278q-171 -109 -395 -109q-226 0 -397 109q-167 109 -250 280q-82 171 -82 377
q0 208 84 378t248 277zM508 219q128 -90 299 -90t299 90q123 89 180 225q56 135 57.5 285t-59.5 289t-178 223q-127 92 -299 92t-299 -92q-122 -86 -180 -223q-57 -135 -58.5 -285t60 -289t178.5 -225z" />
    <glyph glyph-name="ohungarumlaut" unicode="&#x151;" horiz-adv-x="1179" 
d="M346 1206l166 293h215l-246 -293h-135zM666 1206l165 293h216l-246 -293h-135zM57 528q0 240 140 398q139 157 383 157t383 -157t139 -398q0 -240 -139 -397q-138 -156 -383 -156t-383 156q-140 158 -140 397zM918 528q0 187 -99 295q-95 109 -239 109q-142 0 -242 -109
q-96 -110 -96 -295q0 -182 96 -292q98 -107 242 -107q145 0 239 107q99 108 99 292z" />
    <glyph glyph-name="OE" unicode="&#x152;" horiz-adv-x="2199" 
d="M1128 0v141h-4q-50 -83 -153 -129.5t-223 -46.5q-315 0 -494 215q-176 215 -176 547q0 339 184 553q184 217 502 217q117 0 218 -41.5t142 -114.5h4v121h977v-164h-782v-464h737v-164h-737v-506h795v-164h-990zM1128 418v616q0 96 -30 142q-46 69 -135 113t-197 44
q-238 0 -367 -176q-127 -177 -127 -438q0 -255 129 -424q129 -166 361 -166q154 0 260 80q106 81 106 209z" />
    <glyph glyph-name="oe" unicode="&#x153;" horiz-adv-x="1849" 
d="M1782 477h-776q-3 -148 75 -248q81 -100 230 -100q230 0 295 207h166q-108 -361 -461 -361q-296 0 -385 209q-89 -209 -367 -209q-241 0 -373 156q-129 156 -129 399t131 398t371 155q130 0 227 -47.5t140 -138.5q53 89 153.5 137.5t220.5 48.5q253 0 373 -170
q121 -171 109 -436zM559 930q-72 0 -128.5 -24t-91.5 -64t-57.5 -96t-31 -113.5t-8.5 -124.5q0 -101 26 -180q28 -85 104.5 -142t186.5 -57q111 0 178 64q65 60 91 142.5t26 196.5q0 398 -295 398zM1006 631h591q0 135 -81 217t-216 82q-134 0 -215 -82.5t-79 -216.5z" />
    <glyph glyph-name="Racute" unicode="&#x154;" horiz-adv-x="1402" 
d="M758 1888h223l-268 -293h-131zM1217 334q24 -104 53 -182q25 -67 78 -132v-20h-211q-39 51 -60 106q-20 53 -39 140q-14 74 -22 104q-37 130 -103.5 196t-177.5 66h-387v-612h-194v1462h622q231 0 357.5 -106.5t126.5 -288.5q0 -314 -289 -393q105 -23 155 -107
q57 -84 91 -233zM348 1298v-522h420q295 0 295 291q0 231 -287 231h-428z" />
    <glyph glyph-name="racute" unicode="&#x155;" horiz-adv-x="751" 
d="M150 1206l176 293h223l-268 -293h-131zM715 1063v-174q-194 31 -305 -78.5t-111 -339.5v-471h-184v1059h174v-264h4q43 156 156 224.5t266 43.5z" />
    <glyph glyph-name="Rcommaaccent" unicode="&#x156;" horiz-adv-x="1402" 
d="M1217 334q24 -104 53 -182q25 -67 78 -132v-20h-211q-39 51 -60 106q-20 53 -39 140q-14 74 -22 104q-37 130 -103.5 196t-177.5 66h-387v-612h-194v1462h622q231 0 357.5 -106.5t126.5 -288.5q0 -314 -289 -393q105 -23 155 -107q57 -84 91 -233zM348 1298v-522h420
q295 0 295 291q0 231 -287 231h-428zM711 -283h-107v181h227v-158q0 -83 -53.5 -126.5t-148.5 -43.5v72q57 20 70.5 34.5t11.5 40.5z" />
    <glyph glyph-name="rcommaaccent" unicode="&#x157;" horiz-adv-x="751" 
d="M715 1063v-174q-194 31 -305 -78.5t-111 -339.5v-471h-184v1059h174v-264h4q43 156 156 224.5t266 43.5zM111 -283v181h227v-158q0 -83 -53.5 -126.5t-149.5 -43.5v72q57 20 70.5 34.5t11.5 40.5h-106z" />
    <glyph glyph-name="Rcaron" unicode="&#x158;" horiz-adv-x="1402" 
d="M1006 1888l-211 -293h-191l-213 293h172l142 -196l143 196h158zM1217 334q24 -104 53 -182q25 -67 78 -132v-20h-211q-39 51 -60 106q-20 53 -39 140q-14 74 -22 104q-37 130 -103.5 196t-177.5 66h-387v-612h-194v1462h622q231 0 357.5 -106.5t126.5 -288.5
q0 -314 -289 -393q105 -23 155 -107q57 -84 91 -233zM348 1298v-522h420q295 0 295 291q0 231 -287 231h-428z" />
    <glyph glyph-name="rcaron" unicode="&#x159;" horiz-adv-x="751" 
d="M713 1499l-211 -293h-191l-213 293h172l142 -196l143 196h158zM715 1063v-174q-194 31 -305 -78.5t-111 -339.5v-471h-184v1059h174v-264h4q43 156 156 224.5t266 43.5z" />
    <glyph glyph-name="Sacute" unicode="&#x15a;" horiz-adv-x="1343" 
d="M584 1595l176 293h223l-268 -293h-131zM1206 1042h-194q-17 152 -101 221.5t-241 69.5q-141 0 -244 -59q-100 -57 -100 -191q0 -60 32 -103t86 -68t124.5 -42.5t148 -32.5t155 -32.5t148 -48t124.5 -74t86 -115t32 -166.5q0 -145 -93 -249q-165 -187 -485 -187
q-265 0 -438 123q-172 126 -172 375h194q0 -171 117 -254q118 -80 299 -80q157 0 270 61t113 205q0 71 -32 122t-86 80.5t-124.5 50t-148 35t-155 30.5t-148 42t-124.5 63.5t-86 101t-32 149.5q0 205 158 317q159 111 381 111q245 0 387 -114.5t149 -340.5z" />
    <glyph glyph-name="sacute" unicode="&#x15b;" horiz-adv-x="1042" 
d="M408 1206l176 293h223l-268 -293h-131zM49 311h178q15 -186 273 -186q111 0 192 37q84 38 84 125q0 73 -63 121q-22 19 -72 34q-68 21 -82 23q-22 7 -94 20q-123 23 -213 58q-83 35 -122.5 89t-45.5 150q0 148 119 224q121 77 276 77q197 0 303 -65q107 -64 131 -248
h-170q-22 94 -81.5 129t-169.5 35q-97 0 -160.5 -35.5t-63.5 -105.5q0 -49 29 -79t86 -50l68 -21l81 -16q20 -3 82 -17q144 -33 236 -88q111 -65 111 -213q0 -119 -76 -198q-128 -136 -393 -136q-186 0 -308 76q-123 76 -135 260z" />
    <glyph glyph-name="Scircumflex" unicode="&#x15c;" horiz-adv-x="1343" 
d="M367 1595l211 293h190l213 -293h-172l-141 197l-144 -197h-157zM1206 1042h-194q-17 152 -101 221.5t-241 69.5q-141 0 -244 -59q-100 -57 -100 -191q0 -60 32 -103t86 -68t124.5 -42.5t148 -32.5t155 -32.5t148 -48t124.5 -74t86 -115t32 -166.5q0 -145 -93 -249
q-165 -187 -485 -187q-265 0 -438 123q-172 126 -172 375h194q0 -171 117 -254q118 -80 299 -80q157 0 270 61t113 205q0 71 -32 122t-86 80.5t-124.5 50t-148 35t-155 30.5t-148 42t-124.5 63.5t-86 101t-32 149.5q0 205 158 317q159 111 381 111q245 0 387 -114.5
t149 -340.5z" />
    <glyph glyph-name="scircumflex" unicode="&#x15d;" horiz-adv-x="1042" 
d="M211 1206l211 293h190l213 -293h-172l-141 197l-143 -197h-158zM49 311h178q15 -186 273 -186q111 0 192 37q84 38 84 125q0 73 -63 121q-22 19 -72 34q-68 21 -82 23q-22 7 -94 20q-123 23 -213 58q-83 35 -122.5 89t-45.5 150q0 148 119 224q121 77 276 77
q197 0 303 -65q107 -64 131 -248h-170q-22 94 -81.5 129t-169.5 35q-97 0 -160.5 -35.5t-63.5 -105.5q0 -49 29 -79t86 -50l68 -21l81 -16q20 -3 82 -17q144 -33 236 -88q111 -65 111 -213q0 -119 -76 -198q-128 -136 -393 -136q-186 0 -308 76q-123 76 -135 260z" />
    <glyph glyph-name="Scedilla" unicode="&#x15e;" horiz-adv-x="1343" 
d="M1262 401q0 -144 -88 -245q-157 -181 -467 -191h-35l-156 -119l4 -4q70 52 180 52q75 0 122.5 -39t47.5 -109q0 -88 -74.5 -132t-187.5 -44q-123 0 -209 45l72 82q45 -25 111 -25q53 0 94 19.5t41 50.5q0 32 -31.5 52t-79.5 20q-78 0 -137 -41l-37 67l141 131
q-221 21 -362 146q-137 122 -137 346h194q0 -171 117 -254q118 -80 299 -80q157 0 270 61t113 205q0 71 -32 122t-86 80.5t-124.5 50t-148 35t-155 30.5t-148 42t-124.5 63.5t-86 101t-32 149.5q0 205 158 317q159 111 381 111q245 0 387 -114.5t149 -340.5h-194
q-17 152 -101 221.5t-241 69.5q-141 0 -244 -59q-100 -57 -100 -191q0 -60 32 -103t86 -68t124.5 -42.5t148 -32.5t155 -32.5t148 -48t124.5 -74t86 -115t32 -166.5z" />
    <glyph glyph-name="scedilla" unicode="&#x15f;" horiz-adv-x="1042" 
d="M961 309q0 -153 -111 -233q-113 -81 -275 -96l-176 -134l4 -4q70 52 181 52q75 0 122.5 -39t47.5 -109q0 -88 -74.5 -132t-187.5 -44q-123 0 -209 45l71 82q45 -25 111 -25q53 0 94 19.5t41 50.5q0 32 -31.5 52t-79.5 20q-78 0 -137 -41l-37 67l146 135q-391 15 -412 336
h178q15 -186 273 -186q111 0 192 37q84 38 84 125q0 73 -63 121q-22 19 -72 34q-68 21 -82 23q-22 7 -94 20q-123 23 -213 58q-83 35 -122.5 89t-45.5 150q0 148 119 224q121 77 276 77q197 0 303 -65q107 -64 131 -248h-170q-22 94 -81.5 129t-169.5 35q-97 0 -160.5 -35.5
t-63.5 -105.5q0 -49 29 -79t86 -50l68 -21l81 -16q20 -3 82 -17q144 -33 236 -88q111 -65 111 -213z" />
    <glyph glyph-name="Scaron" unicode="&#x160;" horiz-adv-x="1343" 
d="M983 1888l-211 -293h-190l-213 293h172l141 -196l143 196h158zM1206 1042h-194q-17 152 -101 221.5t-241 69.5q-141 0 -244 -59q-100 -57 -100 -191q0 -60 32 -103t86 -68t124.5 -42.5t148 -32.5t155 -32.5t148 -48t124.5 -74t86 -115t32 -166.5q0 -145 -93 -249
q-165 -187 -485 -187q-265 0 -438 123q-172 126 -172 375h194q0 -171 117 -254q118 -80 299 -80q157 0 270 61t113 205q0 71 -32 122t-86 80.5t-124.5 50t-148 35t-155 30.5t-148 42t-124.5 63.5t-86 101t-32 149.5q0 205 158 317q159 111 381 111q245 0 387 -114.5
t149 -340.5z" />
    <glyph glyph-name="scaron" unicode="&#x161;" horiz-adv-x="1042" 
d="M825 1499l-211 -293h-190l-213 293h172l141 -196l144 196h157zM49 311h178q15 -186 273 -186q111 0 192 37q84 38 84 125q0 73 -63 121q-22 19 -72 34q-68 21 -82 23q-22 7 -94 20q-123 23 -213 58q-83 35 -122.5 89t-45.5 150q0 148 119 224q121 77 276 77
q197 0 303 -65q107 -64 131 -248h-170q-22 94 -81.5 129t-169.5 35q-97 0 -160.5 -35.5t-63.5 -105.5q0 -49 29 -79t86 -50l68 -21l81 -16q20 -3 82 -17q144 -33 236 -88q111 -65 111 -213q0 -119 -76 -198q-128 -136 -393 -136q-186 0 -308 76q-123 76 -135 260z" />
    <glyph glyph-name="Tcaron" unicode="&#x164;" horiz-adv-x="1185" 
d="M895 1888l-211 -293h-190l-213 293h172l141 -196l143 196h158zM8 1462h1168v-164h-488v-1298h-192v1298h-488v164z" />
    <glyph glyph-name="tcaron" unicode="&#x165;" horiz-adv-x="651" 
d="M575 1169l54 293h223l-154 -293h-123zM365 1397h6v-338h211v-152h-211v-686q0 -37 16 -51t62 -14h122v-156h-206q-95 0 -135 51t-40 152v704h-174v152h174v252z" />
    <glyph glyph-name="Tbar" unicode="&#x166;" horiz-adv-x="1183" 
d="M1176 1462v-164h-488v-303h297v-112h-297v-883h-192v883h-291v112h291v303h-488v164h1168z" />
    <glyph glyph-name="tbar" unicode="&#x167;" horiz-adv-x="659" 
d="M623 705v-109h-252v-375q0 -37 16 -51t62 -14h122v-156h-206q-95 0 -135 51t-40 152v393h-182v109h182v202h-174v152h174v252l175 86h6v-338h211v-152h-211v-202h252z" />
    <glyph glyph-name="Utilde" unicode="&#x168;" horiz-adv-x="1454" 
d="M975 1858h106q-12 -91 -65 -162q-54 -66 -142 -66q-63 0 -153 41q-101 39 -135 39q-40 0 -64 -24q-19 -16 -37 -62h-106q47 225 217 225q56 0 149 -41q96 -41 136 -41q66 0 94 91zM1315 1462v-934q0 -275 -149 -419t-427 -144q-293 0 -446.5 141t-153.5 422v934h195v-934
q0 -195 104 -297t301 -102q186 0 283.5 102t97.5 297v934h195z" />
    <glyph glyph-name="utilde" unicode="&#x169;" 
d="M367 1296q-20 -16 -37 -61h-107q47 225 217 225q57 0 150 -41q96 -41 135 -41q67 0 94 90h107q-12 -88 -66 -161q-54 -66 -141 -66q-64 0 -154 41q-101 39 -135 39q-38 0 -63 -25zM852 498v561h184v-1059h-174v229h-4q-36 -125 -127 -189.5t-217 -64.5q-197 0 -300 102.5
t-103 284.5v697h184v-678q0 -135 61 -193.5t183 -58.5q159 0 236 87.5t77 281.5z" />
    <glyph glyph-name="Umacron" unicode="&#x16a;" horiz-adv-x="1454" 
d="M381 1673v113h698v-113h-698zM1315 1462v-934q0 -275 -149 -419t-427 -144q-293 0 -446.5 141t-153.5 422v934h195v-934q0 -195 104 -297t301 -102q186 0 283.5 102t97.5 297v934h195z" />
    <glyph glyph-name="umacron" unicode="&#x16b;" 
d="M233 1397h699v-113h-699v113zM852 498v561h184v-1059h-174v229h-4q-36 -125 -127 -189.5t-217 -64.5q-197 0 -300 102.5t-103 284.5v697h184v-678q0 -135 61 -193.5t183 -58.5q159 0 236 87.5t77 281.5z" />
    <glyph glyph-name="Ubreve" unicode="&#x16c;" horiz-adv-x="1454" 
d="M397 1882h103q50 -170 229 -170q79 0 122.5 39t80.5 131h104q-23 -135 -107 -209t-216 -74q-275 0 -316 283zM1315 1462v-934q0 -275 -149 -419t-427 -144q-293 0 -446.5 141t-153.5 422v934h195v-934q0 -195 104 -297t301 -102q186 0 283.5 102t97.5 297v934h195z" />
    <glyph glyph-name="ubreve" unicode="&#x16d;" 
d="M569 1210q-274 0 -315 283h102q50 -170 230 -170q79 0 122 39t80 131h105q-23 -134 -107 -208.5t-217 -74.5zM852 498v561h184v-1059h-174v229h-4q-36 -125 -127 -189.5t-217 -64.5q-197 0 -300 102.5t-103 284.5v697h184v-678q0 -135 61 -193.5t183 -58.5
q159 0 236 87.5t77 281.5z" />
    <glyph glyph-name="uring" unicode="&#x16f;" 
d="M735 1233q-67 -67 -161.5 -67t-163.5 67q-68 67 -68 161t68 162q69 68 163.5 68t161.5 -68q69 -68 69 -162t-69 -161zM672 1491q-38 41 -98.5 41t-98.5 -41q-38 -38 -38 -98t38 -101q38 -38 98.5 -38t98.5 38q38 41 38 101t-38 98zM852 498v561h184v-1059h-174v229h-4
q-36 -125 -127 -189.5t-217 -64.5q-197 0 -300 102.5t-103 284.5v697h184v-678q0 -135 61 -193.5t183 -58.5q159 0 236 87.5t77 281.5z" />
    <glyph glyph-name="Uhungarumlaut" unicode="&#x170;" horiz-adv-x="1454" 
d="M496 1595l166 293h215l-246 -293h-135zM815 1595l166 293h215l-246 -293h-135zM1315 1462v-934q0 -275 -149 -419t-427 -144q-293 0 -446.5 141t-153.5 422v934h195v-934q0 -195 104 -297t301 -102q186 0 283.5 102t97.5 297v934h195z" />
    <glyph glyph-name="Uogonek" unicode="&#x172;" horiz-adv-x="1454" 
d="M1120 528v934h195v-934q0 -258 -132.5 -401t-381.5 -160q-12 -10 -47 -45q-86 -86 -86 -164q0 -37 20 -61.5t57 -24.5q77 0 127 62l66 -37q-74 -127 -221 -127q-189 0 -189 168q0 74 109 180q36 32 65 47q-563 21 -563 563v934h195v-934q0 -195 104 -297t301 -102
q186 0 283.5 102t97.5 297z" />
    <glyph glyph-name="uogonek" unicode="&#x173;" horiz-adv-x="1155" 
d="M979 -266l65 -37q-74 -127 -221 -127q-188 0 -188 168q0 20 12 55q14 37 67 93t128 102l22 12h-2v229h-4q-36 -125 -127 -189.5t-217 -64.5q-197 0 -300 102.5t-103 284.5v697h184v-678q0 -135 61 -193.5t183 -58.5q159 0 236 87.5t77 281.5v561h184v-1059h-90l-10 -8
q-162 -137 -162 -234q0 -37 20.5 -61.5t57.5 -24.5q77 0 127 62z" />
    <glyph glyph-name="Wcircumflex" unicode="&#x174;" horiz-adv-x="1880" 
d="M1083 1595l-141 197l-143 -197h-158l211 293h190l213 -293h-172zM1370 205l289 1257h205l-371 -1462h-244l-309 1229h-4l-322 -1229h-243l-355 1462h205l275 -1257h4l307 1257h264l295 -1257h4z" />
    <glyph glyph-name="wcircumflex" unicode="&#x175;" horiz-adv-x="1495" 
d="M913 1206l-141 197l-143 -197h-158l211 293h190l213 -293h-172zM1067 143l219 916h193l-295 -1059h-264l-162 846h-4l-191 -846h-248l-299 1059h195l221 -916h8l191 916h237l195 -916h4z" />
    <glyph glyph-name="Ycircumflex" unicode="&#x176;" horiz-adv-x="1318" 
d="M805 1595l-141 197l-144 -197h-158l211 293h191l213 -293h-172zM1098 1462h221l-559 -864v-598h-195v598l-565 864h231l439 -696z" />
    <glyph glyph-name="ycircumflex" unicode="&#x177;" horiz-adv-x="1024" 
d="M659 1206l-141 197l-143 -197h-158l211 293h190l213 -293h-172zM524 201l299 858h185l-459 -1264q-70 -205 -268 -205h-144v154h117q50 0 92.5 36.5t61.5 94.5l28 78l-420 1106h197z" />
    <glyph glyph-name="Ydieresis" unicode="&#x178;" horiz-adv-x="1318" 
d="M383 1835h184v-213h-184v213zM768 1835h184v-213h-184v213zM1098 1462h221l-559 -864v-598h-195v598l-565 864h231l439 -696z" />
    <glyph glyph-name="Zacute" unicode="&#x179;" horiz-adv-x="1249" 
d="M731 1888h223l-268 -293h-131zM1184 1298l-908 -1134h932v-164h-1163v164l911 1134h-841v164h1069v-164z" />
    <glyph glyph-name="zacute" unicode="&#x17a;" horiz-adv-x="974" 
d="M592 1499h223l-268 -293h-131zM911 940l-653 -784h676v-156h-893v133l645 772h-598v154h823v-119z" />
    <glyph glyph-name="Zdotaccent" unicode="&#x17b;" horiz-adv-x="1249" 
d="M551 1839h184v-213h-184v213zM1184 1298l-908 -1134h932v-164h-1163v164l911 1134h-841v164h1069v-164z" />
    <glyph glyph-name="zdotaccent" unicode="&#x17c;" horiz-adv-x="974" 
d="M406 1450h184v-213h-184v213zM911 940l-653 -784h676v-156h-893v133l645 772h-598v154h823v-119z" />
    <glyph glyph-name="Zcaron" unicode="&#x17d;" horiz-adv-x="1249" 
d="M948 1888l-211 -293h-190l-213 293h172l141 -196l144 196h157zM1184 1298l-908 -1134h932v-164h-1163v164l911 1134h-841v164h1069v-164z" />
    <glyph glyph-name="zcaron" unicode="&#x17e;" horiz-adv-x="974" 
d="M797 1499l-211 -293h-191l-213 293h172l142 -196l143 196h158zM911 940l-653 -784h676v-156h-893v133l645 772h-598v154h823v-119z" />
    <glyph glyph-name="florin" unicode="&#x192;" horiz-adv-x="655" 
d="M395 1059h203v-150h-201v-909h-180v909h-176v150h176v201q0 89 63.5 145.5t168.5 56.5h137v-153h-105q-86 0 -86 -76v-174z" />
    <glyph glyph-name="Scommaaccent" unicode="&#x218;" horiz-adv-x="1343" 
d="M1206 1042h-194q-17 152 -101 221.5t-241 69.5q-141 0 -244 -59q-100 -57 -100 -191q0 -60 32 -103t86 -68t124.5 -42.5t148 -32.5t155 -32.5t148 -48t124.5 -74t86 -115t32 -166.5q0 -145 -93 -249q-165 -187 -485 -187q-265 0 -438 123q-172 126 -172 375h194
q0 -171 117 -254q118 -80 299 -80q157 0 270 61t113 205q0 71 -32 122t-86 80.5t-124.5 50t-148 35t-155 30.5t-148 42t-124.5 63.5t-86 101t-32 149.5q0 205 158 317q159 111 381 111q245 0 387 -114.5t149 -340.5zM561 -283v181h227v-158q0 -83 -53.5 -126.5t-148.5 -43.5
v72q57 20 70.5 34.5t11.5 40.5h-107z" />
    <glyph glyph-name="scommaaccent" unicode="&#x219;" horiz-adv-x="1042" 
d="M49 311h178q15 -186 273 -186q111 0 192 37q84 38 84 125q0 73 -63 121q-22 19 -72 34q-68 21 -82 23q-22 7 -94 20q-123 23 -213 58q-83 35 -122.5 89t-45.5 150q0 148 119 224q121 77 276 77q197 0 303 -65q107 -64 131 -248h-170q-22 94 -81.5 129t-169.5 35
q-97 0 -160.5 -35.5t-63.5 -105.5q0 -49 29 -79t86 -50l68 -21l81 -16q20 -3 82 -17q144 -33 236 -88q111 -65 111 -213q0 -119 -76 -198q-128 -136 -393 -136q-186 0 -308 76q-123 76 -135 260zM401 -283v181h228v-158q0 -83 -53.5 -126.5t-149.5 -43.5v72q57 20 70.5 34.5
t11.5 40.5h-107z" />
    <glyph glyph-name="circumflex" unicode="&#x2c6;" horiz-adv-x="1198" 
d="M492 1499h190l213 -293h-172l-141 197l-144 -197h-157z" />
    <glyph glyph-name="caron" unicode="&#x2c7;" horiz-adv-x="1705" 
 />
    <glyph glyph-name="breve" unicode="&#x2d8;" horiz-adv-x="1705" 
 />
    <glyph glyph-name="dotaccent" unicode="&#x2d9;" horiz-adv-x="1705" 
 />
    <glyph glyph-name="ring" unicode="&#x2da;" horiz-adv-x="1705" 
 />
    <glyph glyph-name="ogonek" unicode="&#x2db;" horiz-adv-x="1705" 
 />
    <glyph glyph-name="tilde" unicode="&#x2dc;" horiz-adv-x="1181" 
d="M938 1468q-12 -88 -66 -161q-54 -66 -141 -66q-63 0 -153 41q-101 39 -136 39q-38 0 -63 -25q-20 -16 -37 -61h-106q46 225 217 225q56 0 149 -41q96 -41 135 -41q67 0 94 90h107z" />
    <glyph glyph-name="hungarumlaut" unicode="&#x2dd;" horiz-adv-x="2220" 
d="M557 1499h223l-268 -293h-131zM1667 1499h223l-268 -293h-131z" />
    <glyph glyph-name="uni0394" unicode="&#x394;" horiz-adv-x="1380" 
d="M1356 0h-1329l571 1458h170zM1126 147l-444 1139l-436 -1139h880z" />
    <glyph glyph-name="uni03A9" unicode="&#x3a9;" horiz-adv-x="1531" 
d="M1409 0h-524v375q172 35 266 158t94 307q0 211 -139 350t-352 139q-211 0 -353 -139q-141 -138 -141 -350q0 -182 94 -310q96 -128 269 -155v-375h-527v137h396v148q-184 52 -291 207q-105 156 -105 354q0 272 193 450q193 181 465 181q274 0 465 -179q190 -175 190 -448
q0 -203 -104 -358q-103 -155 -289 -207v-148h393v-137z" />
    <glyph glyph-name="uni03BC" unicode="&#x3bc;" horiz-adv-x="1138" 
d="M1008 1059v-1059h-164v209h-4q-22 -130 -93.5 -182t-205.5 -52q-90 0 -152 50t-80 131h-4v-562h-174v1465h174v-676q0 -130 61.5 -192t174.5 -62q148 0 220.5 87.5t72.5 244.5v598h174z" />
    <glyph glyph-name="pi" unicode="&#x3c0;" horiz-adv-x="1167" 
d="M1120 139v-116q-75 -35 -141 -35q-118 0 -152 73q-24 68 -24 172v607h-504v-840h-154v840h-141v141h1108v-141h-156v-613q0 -58 15.5 -83t62.5 -25q45 0 86 20z" />
    <glyph glyph-name="endash" unicode="&#x2013;" horiz-adv-x="1167" 
d="M72 487v164h1024v-164h-1024z" />
    <glyph glyph-name="emdash" unicode="&#x2014;" horiz-adv-x="1638" 
d="M61 487v164h1516v-164h-1516z" />
    <glyph glyph-name="quoteleft" unicode="&#x2018;" horiz-adv-x="456" 
d="M342 934h-227v227q0 135 59 218t166 83v-102q-60 0 -89.5 -55.5t-29.5 -143.5h121v-227z" />
    <glyph glyph-name="quoteright" unicode="&#x2019;" horiz-adv-x="444" 
d="M115 1235v227h227v-227q0 -135 -59 -218t-166 -83v102q60 0 89.5 55.5t29.5 143.5h-121z" />
    <glyph glyph-name="quotedblleft" unicode="&#x201c;" horiz-adv-x="782" 
d="M666 934h-228v227q0 135 59.5 218t166.5 83v-102q-60 0 -89.5 -55.5t-29.5 -143.5h121v-227zM115 934v227q0 135 59 218t166 83v-102q-60 0 -89.5 -55.5t-29.5 -143.5h121v-227h-227z" />
    <glyph glyph-name="quotedblright" unicode="&#x201d;" horiz-adv-x="784" 
d="M340 1462v-227q0 -135 -59 -218t-166 -83v102q60 0 89 55.5t29 143.5h-120v227h227zM664 1462v-227q0 -135 -59.5 -218t-166.5 -83v102q60 0 89.5 55.5t29.5 143.5h-121v227h228z" />
    <glyph glyph-name="dagger" unicode="&#x2020;" horiz-adv-x="561" 
d="M211 -438v2048h139v-2048h-139zM-35 487v164h633v-164h-633z" />
    <glyph glyph-name="daggerdbl" unicode="&#x2021;" horiz-adv-x="561" 
d="M211 -438v2048h139v-2048h-139zM797 795v-140h-1033v140h1033zM-236 242v139h1033v-139h-1033z" />
    <glyph glyph-name="bullet" unicode="&#x2022;" horiz-adv-x="722" 
d="M463 715q38 -38 38 -98t-38 -101q-38 -38 -98.5 -38t-98.5 38q-38 41 -38 101t38 98q38 41 98.5 41t98.5 -41z" />
    <glyph glyph-name="ellipsis" unicode="&#x2026;" horiz-adv-x="2048" 
d="M227 0v227h228v-227h-228zM909 0v227h228v-227h-228zM1591 0v227h228v-227h-228z" />
    <glyph glyph-name="perthousand" unicode="&#x2030;" horiz-adv-x="2351" 
d="M184 -45l1102 1524h174l-1100 -1524h-176zM451 1452q155 0 225 -94q74 -95 74 -252q0 -159 -82 -260q-77 -92 -222 -92q-148 0 -223.5 91t-75.5 251q0 167 75.5 261.5t228.5 94.5zM449 866q77 0 112 65.5t35 168.5q0 39 -5.5 76t-19.5 76t-43.5 63t-70.5 24
q-80 0 -118 -66t-38 -171q0 -236 148 -236zM1198 674q155 0 225 -94q74 -95 74 -252q0 -159 -82 -260q-78 -93 -221 -93q-148 0 -223.5 91t-75.5 251q0 168 75 262.5t228 94.5zM1905 674q155 0 225 -94q74 -95 74 -252q0 -159 -82 -260q-78 -93 -221 -93q-148 0 -223.5 91
t-75.5 251q0 168 75 262.5t228 94.5zM1196 88q77 0 112 65.5t35 168.5q0 39 -5.5 76t-19.5 76t-43.5 63t-70.5 24q-80 0 -117.5 -66t-37.5 -171q0 -236 147 -236zM1903 88q77 0 112 65.5t35 168.5q0 39 -5.5 76t-19.5 76t-43.5 63t-70.5 24q-80 0 -118 -66t-38 -171
q0 -236 148 -236z" />
    <glyph glyph-name="Euro" unicode="&#x20ac;" horiz-adv-x="1138" 
d="M793 125q100 0 174 39q56 29 141 108v-215q-140 -90 -315 -90q-257 0 -414.5 156.5t-194.5 441.5h-157l55 125h92v41q0 52 2 66h-149l55 125h108q49 253 187 397q72 78 188 122t242 44q186 0 371 -129l-95 -170q-144 141 -292 141q-84 0 -162.5 -34.5t-126.5 -96.5
q-86 -112 -115 -274h619l-54 -125h-579q-2 -14 -2 -64v-43h553l-54 -125h-487q30 -209 135.5 -324.5t274.5 -115.5z" />
    <glyph glyph-name="uni2113" unicode="&#x2113;" horiz-adv-x="1024" 
d="M584 -29q-119 0 -189.5 68.5t-70.5 193.5v234l-119 -127h-4l-84 76l207 172v530q0 164 73.5 261.5t190.5 97.5q101 0 163 -71.5t62 -191.5q0 -290 -350 -651v-307q0 -91 42.5 -134.5t110.5 -43.5q46 0 100.5 36t84.5 91l49 -121q-119 -113 -266 -113zM588 1378
q-53 0 -89 -63t-36 -174v-455q233 269 233 518q0 78 -30 126t-78 48z" />
    <glyph glyph-name="trademark" unicode="&#x2122;" horiz-adv-x="2027" 
d="M799 1462v-112h-264v-732h-140v732h-264v112h668zM1898 1462v-844h-139v721h-4l-276 -721h-88l-277 721h-4v-721h-139v844h215l252 -674l248 674h212z" />
    <glyph glyph-name="estimated" unicode="&#x212e;" horiz-adv-x="1228" 
d="M1149 530h-807v-387q68 -57 129 -80.5t147 -23.5q252 0 396 246l71 -43q-94 -149 -201 -213t-266 -64q-236 0 -382 162q-146 166 -146 403q0 243 146 404q143 162 382 162q235 0 381 -158q147 -156 150 -408zM342 604h555v326q-60 54 -122.5 74t-158.5 20
q-170 0 -274 -94v-326z" />
    <glyph glyph-name="arrowleft" unicode="&#x2190;" horiz-adv-x="1667" 
d="M1585 582h-1235l248 -240l96 -98q185 -185 240 -244h-260l-283 301q-282 299 -350 367q55 54 338 352l295 311h260q-55 -59 -240 -244l-188 -192q-120 -114 -156 -145h1235v-168z" />
    <glyph glyph-name="arrowup" unicode="&#x2191;" horiz-adv-x="1474" 
d="M821 1210v-1210h-168v1210q-19 -21 -145 -155l-193 -189q-184 -184 -243 -239v260l311 295q297 284 352 338q85 -85 367 -351l301 -282v-260q-74 69 -244 239l-98 97z" />
    <glyph glyph-name="arrowright" unicode="&#x2192;" horiz-adv-x="1667" 
d="M1317 582h-1235v168h1235q-36 31 -156 145l-188 192q-185 185 -240 244h260l295 -311q283 -298 338 -352q-68 -68 -350 -367l-283 -301h-260q55 59 240 244l96 98z" />
    <glyph glyph-name="arrowdown" unicode="&#x2193;" horiz-adv-x="1474" 
d="M653 254v1210h168v-1210q18 20 146 156l192 188q185 185 244 240v-260l-311 -295q-319 -304 -353 -338q-84 84 -366 350l-301 283v260q44 -41 243 -240l99 -96z" />
    <glyph glyph-name="uni2196" unicode="&#x2196;" horiz-adv-x="1519" 
d="M1260 -27l-846 846l-4 -469q0 -178 -4 -338l-175 170q0 47 7 455q6 350 6 475q126 0 475 6q350 6 452 6l175 -172q-324 -4 -338 -4l-469 -4l845 -846z" />
    <glyph glyph-name="uni2197" unicode="&#x2197;" horiz-adv-x="1519" 
d="M1106 844l-846 -846l-125 125l846 846l-469 4q-14 0 -338 4l174 172q104 0 453 -6q350 -6 475 -6q0 -125 6 -475t6 -455l-174 -170q-4 160 -4 338z" />
    <glyph glyph-name="uni2198" unicode="&#x2198;" horiz-adv-x="1519" 
d="M260 1149l846 -846l4 469q0 178 4 338l174 -170q0 -106 -6 -455q-6 -350 -6 -475q-126 0 -475 -6t-453 -6l-174 172q324 4 338 4l469 4l-846 846z" />
    <glyph glyph-name="uni2199" unicode="&#x2199;" horiz-adv-x="1519" 
d="M414 303l846 846l124 -125l-845 -846l469 -4q14 0 338 -4l-175 -172q-103 0 -452 6t-475 6q0 126 -6 475q-7 408 -7 455l175 170q4 -160 4 -338z" />
    <glyph glyph-name="partialdiff" unicode="&#x2202;" horiz-adv-x="1046" 
d="M485 -25q-188 0 -303 136q-114 135 -114 325q0 187 110 312q114 126 297 126q107 0 193.5 -53.5t134.5 -156.5q0 34 2 73t2 74q0 186 -76 348q-38 87 -110.5 138t-167.5 51q-119 0 -220 -107l-100 113q138 123 313 123q116 0 207.5 -45.5t148 -118t93.5 -171.5t51.5 -197
t14.5 -204q0 -221 -52 -405q-44 -164 -148 -260.5t-276 -100.5zM494 748q-129 0 -203 -95q-72 -93 -72 -223q0 -127 72 -231q70 -101 198 -101q107 0 179 84q129 149 129 391q-62 95 -133 135t-170 40z" />
    <glyph glyph-name="product" unicode="&#x220f;" horiz-adv-x="1472" 
d="M1331 -438h-160v1900h-872v-1900h-160v2048h1192v-2048z" />
    <glyph glyph-name="minus" unicode="&#x2212;" horiz-adv-x="1228" 
d="M98 449v139h1032v-139h-1032z" />
    <glyph glyph-name="radical" unicode="&#x221a;" horiz-adv-x="1032" 
d="M1053 1610l-432 -2048h-154l-332 684l-96 -45l-57 123l229 106l309 -649l377 1829h156z" />
    <glyph glyph-name="infinity" unicode="&#x221e;" horiz-adv-x="1554" 
d="M1167 201q-179 0 -389 223l-49 -45l-53 -47q-11 -11 -47 -37q-21 -18 -37 -27.5t-40 -21.5l-34 -17q-49 -26 -131 -26q-134 0 -217.5 88t-83.5 225q0 138 82 229t215 91q79 0 156 -41q79 -41 120 -78q54 -50 119 -115l35 35l39 39q6 4 37.5 34t40.5 35q62 49 86 58
q92 37 149 37q134 0 218.5 -90t84.5 -228q0 -141 -83 -231t-218 -90zM1167 700q-49 0 -141 -49q-26 -15 -86 -67l-41 -39l-33 -31q24 -23 95 -86q37 -31 98 -59.5t115 -28.5q74 0 117.5 49.5t43.5 126.5q0 83 -45 133.5t-123 50.5zM383 698q-73 0 -118.5 -52.5t-45.5 -129.5
q0 -80 45.5 -128t124.5 -48q127 0 301 174q-60 57 -92 82q-45 35 -98 66q-62 36 -117 36z" />
    <glyph glyph-name="integral" unicode="&#x222b;" horiz-adv-x="1134" 
d="M659 1505q-17 0 -29.5 -14t-19 -38t-10.5 -51t-4.5 -59t0 -55t1.5 -45.5t1 -25.5l2 -80v-1047q0 -240 -31 -342q-55 -184 -227 -184q-57 0 -99 28.5t-42 77.5q0 29 23 51.5t52 22.5q39 0 66 -43q30 -43 41 -43q59 0 59 285l-2 24v1059q0 39 -2 80v94q0 110 17 193
q32 113 75 153q71 64 168 64q67 0 114.5 -30.5t47.5 -84.5q0 -35 -24.5 -56.5t-61.5 -21.5q-35 0 -69 43q-33 45 -46 45z" />
    <glyph glyph-name="approxequal" unicode="&#x2248;" horiz-adv-x="1214" 
d="M1047 850h102q-14 -136 -81.5 -217.5t-184.5 -81.5q-89 0 -293 72q-198 73 -262 73q-60 0 -102 -44.5t-54 -112.5h-104q14 136 81 219.5t183 83.5q89 0 284 -74q201 -72 277 -72q124 0 154 154zM1044 479h103q-14 -136 -80.5 -216.5t-183.5 -80.5q-92 0 -293 74t-264 74
q-61 0 -103.5 -46t-50.5 -114h-106q46 303 264 303q91 0 286 -74q195 -71 275 -71q123 0 153 151z" />
    <glyph glyph-name="notequal" unicode="&#x2260;" horiz-adv-x="1214" 
d="M1126 233h-587l-156 -299l-127 66l121 233h-289v148h365l137 260h-502v145h580l157 304l127 -66l-125 -238h299v-145h-374l-138 -260h512v-148z" />
    <glyph glyph-name="lessequal" unicode="&#x2264;" horiz-adv-x="1214" 
d="M1126 168l-1038 377v153l1038 383v-159l-835 -299l835 -297v-158zM1126 -61h-1038v147h1038v-147z" />
    <glyph glyph-name="greaterequal" unicode="&#x2265;" horiz-adv-x="1214" 
d="M1126 545l-1038 -377v158l836 297l-836 299v159l1038 -383v-153zM1126 -61h-1038v147h1038v-147z" />
    <glyph glyph-name="fi" unicode="&#xfb01;" horiz-adv-x="1058" 
d="M377 1233v-174h205v-152h-203v-907h-176v907h-178v152h178v201q0 89 62.5 145.5t166.5 56.5h137v-153h-104q-88 0 -88 -76zM739 1249v213h189v-213h-189zM926 0h-185v1059h185v-1059z" />
    <glyph glyph-name="fl" unicode="&#xfb02;" horiz-adv-x="1056" 
d="M203 907h-178v152h178v201q0 89 62.5 145.5t166.5 56.5h137v-153h-104q-88 0 -88 -76v-174h205v-152h-203v-907h-176v907zM741 0v1462h185v-1462h-185z" />
    <glyph glyph-name="NULL" horiz-adv-x="0" 
 />
    <glyph glyph-name="CR" horiz-adv-x="681" 
 />
    <glyph glyph-name="f.ss03" horiz-adv-x="868" 
d="M475 1059h336v-150h-336l2 -909h-180v909h-256v150h256v201q0 89 63.5 145.5t167.5 56.5h252v-153h-219q-86 0 -86 -76v-174z" />
    <glyph glyph-name="acircumflex.ss01" horiz-adv-x="1187" 
d="M707 1206l-142 160l-143 -160h-158l219 256h174l222 -256h-172zM1073 1059v-916q0 -80 17 -143h-185q-19 135 -16 203h-2q-102 -228 -342 -228q-234 0 -359 162t-125 402q0 231 134 389q131 155 368 155q132 0 215 -62t107 -173h4v211h184zM567 129q173 0 246 119
q76 119 76 297v12q-5 168 -88.5 268.5t-229.5 100.5q-159 0 -241 -113q-80 -112 -80 -274q0 -174 76 -293q76 -117 241 -117z" />
    <glyph glyph-name="a.ss01" horiz-adv-x="1187" 
d="M1073 1059v-916q0 -80 17 -143h-185q-19 135 -16 203h-2q-102 -228 -342 -228q-234 0 -359 162t-125 402q0 231 134 389q131 155 368 155q132 0 215 -62t107 -173h4v211h184zM567 129q173 0 246 119q76 119 76 297v12q-5 168 -88.5 268.5t-229.5 100.5q-159 0 -241 -113
q-80 -112 -80 -274q0 -174 76 -293q76 -117 241 -117z" />
    <glyph glyph-name="t.ss03" horiz-adv-x="843" 
d="M786 1059v-154h-333v-684q0 -38 15.5 -51.5t61.5 -13.5h226v-156h-310q-95 0 -134.5 50.5t-39.5 152.5v702h-256v154h256v252l174 86h7v-338h333z" />
    <glyph glyph-name="plus.cap" horiz-adv-x="1335" 
d="M750 1210v-440h434v-156h-434v-440h-164v440h-434v156h434v440h164z" />
    <glyph glyph-name="tcaron.ss03" horiz-adv-x="843" 
d="M752 1169l53 293h223l-154 -293h-122zM446 1397h7v-338h333v-154h-333v-684q0 -38 15.5 -51.5t61.5 -13.5h226v-156h-310q-95 0 -134.5 50.5t-39.5 152.5v702h-256v154h256v252z" />
    <glyph glyph-name="tbar.ss03" horiz-adv-x="843" 
d="M807 705v-109h-354v-375q0 -38 15.5 -51.5t61.5 -13.5h226v-156h-310q-95 0 -134.5 50.5t-39.5 152.5v393h-260v109h260v200h-256v154h256v252l174 86h7v-338h333v-154h-333v-200h354z" />
    <glyph glyph-name="agrave.ss01" horiz-adv-x="1187" 
d="M532 1499l177 -293h-131l-269 293h223zM1073 1059v-916q0 -80 17 -143h-185q-19 135 -16 203h-2q-102 -228 -342 -228q-234 0 -359 162t-125 402q0 231 134 389q131 155 368 155q132 0 215 -62t107 -173h4v211h184zM567 129q173 0 246 119q76 119 76 297v12
q-5 168 -88.5 268.5t-229.5 100.5q-159 0 -241 -113q-80 -112 -80 -274q0 -174 76 -293q76 -117 241 -117z" />
    <glyph glyph-name="aacute.ss01" horiz-adv-x="1187" 
d="M686 1499h223l-268 -293h-131zM1073 1059v-916q0 -80 17 -143h-185q-19 135 -16 203h-2q-102 -228 -342 -228q-234 0 -359 162t-125 402q0 231 134 389q131 155 368 155q132 0 215 -62t107 -173h4v211h184zM567 129q173 0 246 119q76 119 76 297v12q-5 168 -88.5 268.5
t-229.5 100.5q-159 0 -241 -113q-80 -112 -80 -274q0 -174 76 -293q76 -117 241 -117z" />
    <glyph glyph-name="atilde.ss01" horiz-adv-x="1187" 
d="M367 1296q-20 -16 -37 -61h-107q47 225 217 225q57 0 150 -41q96 -41 135 -41q70 0 94 84h107q-11 -79 -66 -155q-54 -66 -141 -66q-64 0 -154 41q-101 39 -135 39q-38 0 -63 -25zM1073 1059v-916q0 -80 17 -143h-185q-19 135 -16 203h-2q-102 -228 -342 -228
q-234 0 -359 162t-125 402q0 231 134 389q131 155 368 155q132 0 215 -62t107 -173h4v211h184zM567 129q173 0 246 119q76 119 76 297v12q-5 168 -88.5 268.5t-229.5 100.5q-159 0 -241 -113q-80 -112 -80 -274q0 -174 76 -293q76 -117 241 -117z" />
    <glyph glyph-name="adieresis.ss01" horiz-adv-x="1187" 
d="M268 1446h185v-213h-185v213zM653 1446h185v-213h-185v213zM1073 1059v-916q0 -80 17 -143h-185q-19 135 -16 203h-2q-102 -228 -342 -228q-234 0 -359 162t-125 402q0 231 134 389q131 155 368 155q132 0 215 -62t107 -173h4v211h184zM567 129q173 0 246 119
q76 119 76 297v12q-5 168 -88.5 268.5t-229.5 100.5q-159 0 -241 -113q-80 -112 -80 -274q0 -174 76 -293q76 -117 241 -117z" />
    <glyph glyph-name="aring.ss01" horiz-adv-x="1187" 
d="M731 1221q-67 -67 -161.5 -67t-163.5 67q-68 67 -68 161t68 162q69 68 163.5 68t161.5 -68q69 -67 69 -161.5t-69 -161.5zM668 1479q-38 41 -98.5 41t-98.5 -41q-38 -38 -38 -98t38 -101q38 -38 98.5 -38t98.5 38q38 41 38 101t-38 98zM1073 1059v-916q0 -80 17 -143
h-185q-19 135 -16 203h-2q-102 -228 -342 -228q-234 0 -359 162t-125 402q0 231 134 389q131 155 368 155q132 0 215 -62t107 -173h4v211h184zM567 129q173 0 246 119q76 119 76 297v12q-5 168 -88.5 268.5t-229.5 100.5q-159 0 -241 -113q-80 -112 -80 -274q0 -174 76 -293
q76 -117 241 -117z" />
    <glyph glyph-name="abreve.ss01" horiz-adv-x="1187" 
d="M571 1202q-143 0 -219 62.5t-96 197.5h102q24 -80 79 -113.5t151 -33.5q84 0 127 32t76 115h104q-46 -260 -324 -260zM1073 1059v-916q0 -80 17 -143h-185q-19 135 -16 203h-2q-102 -228 -342 -228q-234 0 -359 162t-125 402q0 231 134 389q131 155 368 155
q132 0 215 -62t107 -173h4v211h184zM567 129q173 0 246 119q76 119 76 297v12q-5 168 -88.5 268.5t-229.5 100.5q-159 0 -241 -113q-80 -112 -80 -274q0 -174 76 -293q76 -117 241 -117z" />
    <glyph glyph-name="amacron.ss01" horiz-adv-x="1187" 
d="M231 1397h699v-113h-699v113zM1073 1059v-916q0 -80 17 -143h-185q-19 135 -16 203h-2q-102 -228 -342 -228q-234 0 -359 162t-125 402q0 231 134 389q131 155 368 155q132 0 215 -62t107 -173h4v211h184zM567 129q173 0 246 119q76 119 76 297v12q-5 168 -88.5 268.5
t-229.5 100.5q-159 0 -241 -113q-80 -112 -80 -274q0 -174 76 -293q76 -117 241 -117z" />
    <glyph glyph-name="arrowleft.ss06" horiz-adv-x="2867" 
d="M2785 582h-2435l248 -240l96 -98q185 -185 240 -244h-260l-283 301q-282 299 -350 367q55 54 338 352l295 311h260q-55 -59 -240 -244l-188 -192q-120 -114 -156 -145h2435v-168z" />
    <glyph glyph-name="plus.cap.ss05" horiz-adv-x="1335" 
d="M700 1210v-489h484v-57h-484v-490h-65v490h-483v57h483v489h65z" />
    <glyph glyph-name="plus.ss05" horiz-adv-x="1228" 
d="M647 1036v-489h483v-58h-483v-489h-65v489h-484v58h484v489h65z" />
    <glyph glyph-name="zero.zero" horiz-adv-x="1179" 
d="M1102 731q0 -302 -101 -512q-55 -115 -160.5 -179.5t-250.5 -64.5t-251 64.5t-163 179.5q-98 210 -98 512q0 244 61 414q53 152 164 238.5t287 86.5q115 0 208 -42t150 -113q58 -70 92 -170q62 -173 62 -414zM590 1315q-90 0 -157 -52t-103 -145q-68 -169 -68 -385
q0 -235 68 -395l434 909q-74 68 -174 68zM590 139q90 0 157 53.5t103 147.5q68 178 68 393q0 209 -56 357l-428 -897q73 -54 156 -54z" />
    <glyph glyph-name="one.ss02" horiz-adv-x="862" 
d="M610 1462v-1302h252v-160h-731v160h295v915h-356v139q104 0 184 17q80 19 137.5 76.5t75.5 154.5h143z" />
    <glyph glyph-name="arrowright.ss06" horiz-adv-x="2867" 
d="M2517 582h-2435v168h2435q-36 31 -156 145l-188 192q-185 185 -240 244h260l295 -311q284 -298 338 -352q-68 -68 -350 -367l-283 -301h-260q55 59 240 244l96 98z" />
    <glyph glyph-name="nizarkazansignature" horiz-adv-x="2056" 
d="M1315 475v-536h-574v536h-536v576h536v534h574v-534h536v-576h-536zM864 598v-537h328v537h537v330h-537v534h-328v-534h-536v-330h536z" />
    <glyph glyph-name="list1" horiz-adv-x="2279" 
d="M1139 -197q-118 -3 -234.5 29.5t-216.5 92.5t-185.5 145.5t-145 185.5t-92 216.5t-29.5 234.5q0 370 266 636q269 269 637 269q178 4 347 -69t292.5 -196.5t196.5 -292.5t69 -347q0 -369 -268 -637q-267 -267 -637 -267zM1139 1516q-336 0 -572 -236q-235 -235 -235 -573
q0 -337 235 -572t572 -235q338 0 573 235q236 236 236 572q0 337 -236 573t-573 236zM1219 281v874h-82q-27 -164 -250 -164v-82h225v-628h107z" />
    <glyph glyph-name="list2" horiz-adv-x="2279" 
d="M1139 -197q-118 -3 -234.5 29.5t-216.5 92.5t-185.5 145.5t-145 185.5t-92 216.5t-29.5 234.5q0 370 266 636q269 269 637 269q178 4 347 -69t292.5 -196.5t196.5 -292.5t69 -347q0 -369 -268 -637q-267 -267 -637 -267zM1139 1516q-336 0 -572 -236q-235 -235 -235 -573
q0 -337 235 -572t572 -235q338 0 573 235q236 236 236 572q0 337 -236 573t-573 236zM856 887h109q0 88 48 142t136 54q73 0 121.5 -45t48.5 -116q0 -86 -49 -138q-46 -52 -176 -135q-69 -40 -99 -61q-36 -22 -82 -68q-92 -83 -92 -229h615v92h-490q15 66 78 113l53 41
l74 43l66 36q65 46 108 80q36 29 72 90q37 61 37 134q0 119 -77.5 188.5t-201.5 69.5q-143 0 -221 -74.5t-78 -216.5z" />
    <glyph glyph-name="list3" horiz-adv-x="2279" 
d="M1139 -197q-118 -3 -234.5 29.5t-216.5 92.5t-185.5 145.5t-145 185.5t-92 216.5t-29.5 234.5q0 370 266 636q269 269 637 269q178 4 347 -69t292.5 -196.5t196.5 -292.5t69 -347q0 -369 -268 -637q-267 -267 -637 -267zM1139 1516q-336 0 -572 -236q-235 -235 -235 -573
q0 -337 235 -572t572 -235q338 0 573 235q236 236 236 572q0 337 -236 573t-573 236zM1081 797v-88q14 2 66 2q80 0 131 -44t51 -118q0 -76 -54 -122t-134 -46q-88 0 -141 47.5t-54 128.5h-104q-1 -127 79.5 -196.5t219.5 -69.5q132 0 214.5 70t82.5 192q0 79 -55 137
t-142 70v2q77 20 118.5 66.5t41.5 107.5q0 113 -69.5 171t-190.5 58q-128 0 -197.5 -67t-71.5 -185h103q6 160 166 160q68 0 109.5 -35.5t41.5 -99.5t-46 -102.5t-116 -38.5h-22h-27z" />
    <glyph glyph-name="list4" horiz-adv-x="2279" 
d="M1139 -197q-118 -3 -234.5 29.5t-216.5 92.5t-185.5 145.5t-145 185.5t-92 216.5t-29.5 234.5q0 370 266 636q269 269 637 269q178 4 347 -69t292.5 -196.5t196.5 -292.5t69 -347q0 -369 -268 -637q-267 -267 -637 -267zM1139 1516q-336 0 -572 -236q-235 -235 -235 -573
q0 -337 235 -572t572 -235q338 0 573 235q236 236 236 572q0 337 -236 573t-573 236zM1282 578v563h-80l-414 -553v-99h398v-198h96v198h80v89h-80zM1186 578h-299l299 403v-403z" />
    <glyph glyph-name="list5" horiz-adv-x="2279" 
d="M1139 -197q-118 -3 -234.5 29.5t-216.5 92.5t-185.5 145.5t-145 185.5t-92 216.5t-29.5 234.5q0 370 266 636q269 269 637 269q178 4 347 -69t292.5 -196.5t196.5 -292.5t69 -347q0 -369 -268 -637q-267 -267 -637 -267zM1139 1516q-336 0 -572 -236q-235 -235 -235 -573
q0 -337 235 -572t572 -235q338 0 573 235q236 236 236 572q0 337 -236 573t-573 236zM1362 1051v90h-422l-68 -443l89 -4q59 80 163 80q86 0 138.5 -52.5t52.5 -137.5q0 -96 -49 -149.5t-127 -53.5t-134 44t-61 107h-102q3 -108 86 -176q86 -65 202 -65q142 0 218 82
q77 83 77 198q0 139 -74 216t-196 77q-129 0 -182 -90h-2l47 277h344z" />
    <glyph glyph-name="list6" horiz-adv-x="2279" 
d="M1139 -197q-118 -3 -234.5 29.5t-216.5 92.5t-185.5 145.5t-145 185.5t-92 216.5t-29.5 234.5q0 370 266 636q269 269 637 269q178 4 347 -69t292.5 -196.5t196.5 -292.5t69 -347q0 -369 -268 -637q-267 -267 -637 -267zM1139 1516q-336 0 -572 -236q-235 -235 -235 -573
q0 -337 235 -572t572 -235q338 0 573 235q236 236 236 572q0 337 -236 573t-573 236zM1300 934h105q-11 107 -75 169t-169 62q-89 0 -153.5 -37.5t-98.5 -104.5t-49.5 -145t-15.5 -173q0 -414 297 -414q147 0 217 88q69 87 69 201q0 125 -71 202.5t-191 77.5
q-167 0 -219 -162h-2q-2 76 7.5 139.5t32.5 117t66.5 85t104.5 33.5q61 0 100 -38.5t45 -100.5zM967 571q0 88 48.5 142.5t131.5 54.5q80 0 126 -55t46 -142q0 -82 -47 -136t-125 -54q-83 0 -131.5 53t-48.5 137z" />
    <glyph glyph-name="list7" horiz-adv-x="2279" 
d="M1139 -197q-118 -3 -234.5 29.5t-216.5 92.5t-185.5 145.5t-145 185.5t-92 216.5t-29.5 234.5q0 370 266 636q269 269 637 269q178 4 347 -69t292.5 -196.5t196.5 -292.5t69 -347q0 -369 -268 -637q-267 -267 -637 -267zM1139 1516q-336 0 -572 -236q-235 -235 -235 -573
q0 -337 235 -572t572 -235q338 0 573 235q236 236 236 572q0 337 -236 573t-573 236zM1444 1049v88h-557v-97h473q-135 -99 -242 -315q-106 -210 -121 -434h115q15 202 107 414q96 218 225 344z" />
    <glyph glyph-name="list8" horiz-adv-x="2279" 
d="M1139 -197q-118 -3 -234.5 29.5t-216.5 92.5t-185.5 145.5t-145 185.5t-92 216.5t-29.5 234.5q0 370 266 636q269 269 637 269q178 4 347 -69t292.5 -196.5t196.5 -292.5t69 -347q0 -369 -268 -637q-267 -267 -637 -267zM1139 1516q-336 0 -572 -236q-235 -235 -235 -573
q0 -337 235 -572t572 -235q338 0 573 235q236 236 236 572q0 337 -236 573t-573 236zM1139 1165q-105 0 -177.5 -60.5t-72.5 -156.5q0 -68 44.5 -116t117.5 -66q-82 -18 -138.5 -77.5t-56.5 -135.5q0 -122 81 -192t212 -70q127 0 207 70.5t80 191.5q0 79 -57 137t-140 76
q71 18 116.5 67t45.5 115q0 96 -67 156.5t-195 60.5zM1149 805q-69 0 -111.5 36t-42.5 101q0 62 42.5 96.5t111.5 34.5q64 0 103.5 -34.5t39.5 -96.5t-39.5 -99.5t-103.5 -37.5zM1149 381q-83 0 -133.5 45.5t-50.5 122.5q0 71 52.5 116.5t131.5 45.5q73 0 124.5 -47
t51.5 -115q0 -73 -49.5 -120.5t-126.5 -47.5z" />
    <glyph glyph-name="list9" horiz-adv-x="2279" 
d="M1139 -197q-118 -3 -234.5 29.5t-216.5 92.5t-185.5 145.5t-145 185.5t-92 216.5t-29.5 234.5q0 370 266 636q269 269 637 269q178 4 347 -69t292.5 -196.5t196.5 -292.5t69 -347q0 -369 -268 -637q-267 -267 -637 -267zM1139 1516q-336 0 -572 -236q-235 -235 -235 -573
q0 -337 235 -572t572 -235q338 0 573 235q236 236 236 572q0 337 -236 573t-573 236zM981 524h-107q11 -109 75 -171t169 -62q318 0 318 463q0 411 -297 411q-147 0 -217 -88q-70 -85 -70 -200q0 -125 71 -203t191 -78q166 0 219 164l2 -2q9 -377 -211 -377
q-60 0 -98.5 39.5t-44.5 103.5zM1315 883q0 -88 -48.5 -142.5t-133.5 -54.5q-80 0 -126 55t-46 142q0 83 47 136.5t125 53.5q84 0 133 -52t49 -138z" />
    <glyph glyph-name="list10" horiz-adv-x="2279" 
d="M1139 -197q-118 -3 -234.5 29.5t-216.5 92.5t-185.5 145.5t-145 185.5t-92 216.5t-29.5 234.5q0 370 266 636q269 269 637 269q178 4 347 -69t292.5 -196.5t196.5 -292.5t69 -347q0 -369 -268 -637q-267 -267 -637 -267zM1139 1516q-336 0 -572 -236q-235 -235 -235 -573
q0 -337 235 -572t572 -235q338 0 573 235q236 236 236 572q0 337 -236 573t-573 236zM1366 1139q-218 0 -274 -195q-29 -95 -29 -250q0 -98 10.5 -164t38.5 -133q61 -143 254 -143q195 0 256 143q28 67 38.5 133t10.5 164q0 155 -29 250q-18 64 -51 103q-33 41 -91 66.5
t-134 25.5zM915 264v846h-81q-21 -158 -240 -158v-82h217v-606h104zM1366 340q-124 0 -162 123q-26 90 -26 233q0 146 26 236q39 125 162 125q126 0 162 -127q18 -56 23 -105.5t5 -128.5t-5 -128t-23 -105q-35 -123 -162 -123z" />
    <glyph glyph-name="zero.ss02" horiz-adv-x="1179" 
d="M1102 731q0 -302 -101 -512q-55 -115 -160.5 -179.5t-250.5 -64.5t-251 64.5t-163 179.5q-98 210 -98 512q0 244 61 414q53 152 164 238.5t287 86.5q115 0 208 -42t150 -113q58 -70 92 -170q62 -173 62 -414zM590 1315q-90 0 -157 -52t-103 -145q-68 -169 -68 -385
q0 -235 68 -395l434 909q-74 68 -174 68zM590 139q90 0 157 53.5t103 147.5q68 178 68 393q0 209 -56 357l-428 -897q73 -54 156 -54z" />
  </font>
</defs>
</svg>
